<?xml version="1.0" encoding="UTF-8"?><svg id="Ebene_1" xmlns="http://www.w3.org/2000/svg" viewBox="0 0 222.41 52.13"><defs><style>.cls-1{fill:#fff;stroke-width:0px;}</style></defs><path class="cls-1" d="m171.26,20c0-1.88,1.22-3.43,2.75-3.43,1.53,0,2.77,1.53,2.78,3.41,0,1.88-1.23,3.41-2.75,3.42-1.53,0-2.77-1.51-2.78-3.39"/><path class="cls-1" d="m52.97,50.44c-.48.27-.98.46-1.49.57-.51.11-1.04.17-1.57.17-.63,0-1.2-.11-1.72-.32-.52-.21-.97-.51-1.34-.89-.37-.38-.66-.84-.87-1.37-.21-.53-.31-1.11-.31-1.73s.1-1.2.31-1.73c.21-.53.5-.98.87-1.36.37-.38.82-.68,1.34-.9.52-.22,1.1-.32,1.72-.32,1.22,0,2.21.38,2.96,1.14l-.56.58c-.12-.15-.28-.28-.46-.41-.18-.13-.38-.24-.59-.32-.21-.09-.43-.16-.67-.21-.23-.05-.46-.08-.68-.08-.53,0-1.01.09-1.44.28-.43.19-.8.44-1.1.76-.3.32-.53.71-.7,1.15-.16.44-.24.92-.24,1.43s.08.99.24,1.43c.16.44.39.82.7,1.15.3.32.67.58,1.1.77.43.19.91.28,1.44.28.44,0,.85-.03,1.24-.1.39-.07.74-.2,1.06-.38v-2.76h-1.97v-.7h2.74v3.9Z"/><path class="cls-1" d="m59.22,47.84c0-.24-.05-.46-.15-.67-.1-.21-.23-.39-.39-.55-.17-.16-.36-.28-.59-.38-.23-.09-.47-.14-.72-.14-.38,0-.69.08-.95.23-.25.15-.45.33-.6.53-.15.2-.25.4-.31.59-.06.19-.09.32-.09.39h3.8Zm.53,2.12c-.27.41-.6.7-1,.88-.4.18-.84.27-1.32.27-.41,0-.78-.07-1.11-.21-.33-.14-.62-.33-.86-.59-.24-.25-.42-.55-.55-.89-.13-.34-.19-.72-.19-1.14s.07-.77.2-1.11c.13-.34.32-.64.56-.89.24-.25.52-.45.85-.59.32-.14.68-.21,1.08-.21s.77.07,1.08.21c.31.14.58.33.79.57.21.24.37.5.48.81.11.3.16.61.16.92v.49h-4.5c0,.15.03.33.09.56.06.23.16.45.32.67.15.22.36.4.62.56.26.15.59.23,1,.23.36,0,.7-.09,1.03-.26.33-.17.59-.4.77-.7l.51.43Z"/><path class="cls-1" d="m61.47,47.12c0-.1,0-.22-.01-.37,0-.14-.01-.29-.02-.43,0-.15,0-.28-.02-.41,0-.13-.01-.23-.01-.3h.7c0,.2.01.39.02.58,0,.19.01.31.03.36h.03c.14-.29.37-.55.7-.76.33-.21.7-.32,1.14-.32.36,0,.68.09.97.27.29.18.51.48.64.89.17-.4.42-.7.76-.88.34-.19.69-.28,1.06-.28.42,0,.76.07,1.02.2.26.13.47.3.62.52.15.21.25.46.31.74.06.28.09.56.09.86v3.19h-.7v-3.15c0-.22-.02-.43-.06-.63-.04-.2-.11-.39-.2-.55-.1-.16-.23-.29-.41-.39-.17-.1-.4-.14-.68-.14-.32,0-.59.06-.8.18-.21.12-.37.27-.49.46-.12.19-.21.39-.26.6-.05.22-.08.42-.08.61v3.01h-.7v-3.22c0-.5-.09-.89-.27-1.19-.18-.3-.46-.45-.84-.45-.26,0-.5.04-.72.13-.23.09-.43.22-.59.41-.17.18-.3.41-.39.68-.1.27-.14.6-.14.97v2.68h-.7v-3.85Z"/><path class="cls-1" d="m75.55,47.84c0-.24-.05-.46-.14-.67-.1-.21-.23-.39-.39-.55-.17-.16-.36-.28-.59-.38-.23-.09-.47-.14-.72-.14-.38,0-.69.08-.95.23-.25.15-.45.33-.6.53-.15.2-.25.4-.31.59-.06.19-.09.32-.09.39h3.8Zm.53,2.12c-.27.41-.6.7-1,.88-.4.18-.84.27-1.32.27-.41,0-.78-.07-1.11-.21-.33-.14-.62-.33-.86-.59-.24-.25-.42-.55-.55-.89-.13-.34-.19-.72-.19-1.14s.07-.77.2-1.11c.13-.34.32-.64.56-.89s.52-.45.85-.59c.32-.14.68-.21,1.08-.21s.77.07,1.08.21c.31.14.58.33.79.57.21.24.37.5.48.81.11.3.16.61.16.92v.49h-4.5c0,.15.03.33.09.56.06.23.16.45.32.67.15.22.36.4.62.56.26.15.59.23,1,.23.36,0,.7-.09,1.03-.26.33-.17.59-.4.77-.7l.51.43Z"/><path class="cls-1" d="m77.91,45.62h.7v5.36h-.7v-5.36Zm-.17-2.12c0-.15.05-.27.15-.37.1-.1.22-.15.37-.15s.27.05.37.15c.1.1.15.22.15.37s-.05.27-.15.37c-.1.1-.22.15-.37.15s-.27-.05-.37-.15c-.1-.1-.15-.22-.15-.37"/><path class="cls-1" d="m80.58,47.12c0-.1,0-.22-.01-.37,0-.14-.01-.29-.02-.43,0-.15,0-.28-.02-.41,0-.13-.01-.23-.01-.3h.7c0,.2.01.39.02.58,0,.19.01.31.03.36h.03c.14-.29.37-.55.7-.76.32-.21.7-.32,1.14-.32s.76.07,1.02.2c.26.13.47.3.62.52.15.21.26.46.31.74.06.28.09.56.09.86v3.19h-.7v-3.15c0-.22-.02-.43-.06-.63-.04-.2-.11-.39-.2-.55-.1-.16-.23-.29-.41-.39-.17-.1-.4-.14-.68-.14-.26,0-.5.04-.72.13-.23.09-.43.22-.59.41-.17.18-.3.41-.39.68-.1.27-.14.6-.14.97v2.68h-.7v-3.85Z"/><path class="cls-1" d="m87.04,49.6c.15.29.36.5.65.66.29.15.59.23.9.23.15,0,.29-.02.44-.07.15-.05.28-.11.39-.2.12-.08.21-.19.28-.31.07-.12.11-.26.11-.41,0-.25-.08-.43-.24-.56-.16-.12-.35-.22-.59-.29-.23-.07-.49-.13-.77-.18-.28-.05-.53-.13-.76-.23-.23-.1-.43-.25-.59-.44-.16-.18-.24-.45-.24-.79,0-.26.05-.49.16-.68.11-.19.25-.35.42-.48.17-.13.37-.22.59-.28.22-.06.44-.09.66-.09.44,0,.82.08,1.14.24.32.16.57.42.75.76l-.63.37c-.13-.25-.3-.43-.49-.56-.2-.13-.45-.19-.77-.19-.12,0-.25.02-.39.06-.14.04-.26.09-.36.16-.11.07-.2.16-.27.27-.07.11-.11.23-.11.37,0,.24.08.42.24.53.16.12.35.21.59.27.23.07.49.12.77.17.28.05.53.12.77.23.23.1.43.26.59.45.16.2.24.48.24.84,0,.28-.05.52-.16.72-.1.2-.25.38-.43.52-.18.14-.39.24-.62.31-.23.07-.48.1-.73.1-.46,0-.89-.09-1.27-.27-.38-.18-.68-.45-.89-.82l.61-.42Z"/><path class="cls-1" d="m94.74,48.28c-.29,0-.58.02-.85.06-.27.04-.52.1-.74.2-.22.09-.4.22-.53.37-.13.15-.2.35-.2.58,0,.16.04.31.11.43.07.13.17.23.28.31.12.08.25.14.39.19.14.04.29.06.43.06.37,0,.68-.05.92-.16.24-.11.43-.25.57-.42.14-.17.24-.37.3-.59.05-.22.08-.44.08-.67v-.36h-.76Zm1.39.44c0,.26,0,.5,0,.71,0,.21,0,.4.02.58,0,.18.02.34.03.5.01.15.03.31.05.46h-.65c-.05-.26-.07-.55-.07-.87h-.02c-.2.35-.45.6-.75.77-.3.16-.67.24-1.13.24-.23,0-.46-.03-.68-.09-.22-.06-.42-.15-.6-.28-.18-.13-.32-.29-.43-.49-.11-.2-.17-.44-.17-.73,0-.41.1-.73.31-.97.21-.24.47-.42.77-.54.31-.12.63-.2.97-.23.34-.03.65-.05.91-.05h.81v-.32c0-.46-.14-.8-.43-1-.29-.2-.65-.3-1.08-.3-.62,0-1.16.2-1.64.6l-.41-.47c.26-.25.57-.43.95-.56.38-.13.74-.19,1.09-.19.65,0,1.17.15,1.55.46.39.3.58.8.58,1.48v1.31Z"/><path class="cls-1" d="m97.98,47.12c0-.1,0-.22-.01-.37,0-.14-.01-.29-.02-.43,0-.15,0-.28-.02-.41,0-.13-.01-.23-.01-.3h.7c0,.2.01.39.02.58,0,.19.01.31.03.36h.03c.14-.29.37-.55.7-.76.33-.21.7-.32,1.14-.32.36,0,.68.09.97.27.29.18.51.48.64.89.17-.4.42-.7.76-.88.34-.19.69-.28,1.06-.28.42,0,.76.07,1.02.2.26.13.47.3.62.52.15.21.26.46.31.74.06.28.09.56.09.86v3.19h-.7v-3.15c0-.22-.02-.43-.06-.63-.04-.2-.11-.39-.2-.55-.1-.16-.23-.29-.41-.39-.17-.1-.4-.14-.68-.14-.32,0-.59.06-.8.18-.21.12-.37.27-.49.46-.12.19-.21.39-.26.6-.05.22-.08.42-.08.61v3.01h-.7v-3.22c0-.5-.09-.89-.27-1.19-.18-.3-.46-.45-.84-.45-.26,0-.5.04-.72.13-.23.09-.43.22-.59.41-.17.18-.3.41-.39.68-.1.27-.14.6-.14.97v2.68h-.7v-3.85Z"/><path class="cls-1" d="m111.27,46.24h-1.11v-.63h1.11v-1.75c0-.35.05-.64.16-.86.1-.23.23-.41.39-.55.15-.14.33-.24.52-.3.19-.06.37-.09.54-.09.33,0,.59.05.8.14l-.14.6c-.15-.08-.36-.12-.63-.12-.63,0-.94.47-.94,1.43v1.5h1.25v.63h-1.25v4.73h-.7v-4.73Z"/><path class="cls-1" d="m117.15,43.41c0-.15.05-.29.16-.39.11-.11.24-.16.39-.16s.29.05.39.16c.11.11.16.24.16.39s-.05.29-.16.39c-.11.11-.24.16-.39.16s-.29-.05-.39-.16c-.11-.11-.16-.24-.16-.39m-2.2,0c0-.15.05-.29.16-.39.11-.11.24-.16.39-.16s.29.05.39.16c.11.11.16.24.16.39s-.05.29-.16.39c-.11.11-.24.16-.39.16s-.29-.05-.39-.16c-.11-.11-.16-.24-.16-.39m3.9,6.05c0,.1,0,.22.01.37,0,.14.01.29.02.43,0,.15,0,.28.02.41,0,.13.01.23.01.3h-.7c0-.2-.01-.39-.02-.58,0-.19-.01-.31-.03-.36h-.04c-.14.29-.37.55-.7.76-.32.21-.7.32-1.14.32s-.76-.07-1.03-.2c-.27-.13-.48-.3-.63-.52-.15-.21-.25-.46-.31-.74-.05-.28-.08-.56-.08-.86v-3.19h.7v3.15c0,.22.02.43.06.63.04.21.11.39.2.55.1.16.23.29.41.39.17.1.4.14.68.14.26,0,.5-.04.72-.13.23-.09.43-.22.59-.41.17-.18.3-.41.39-.68.1-.27.14-.6.14-.97v-2.68h.7v3.85Z"/><path class="cls-1" d="m120.76,47.12c0-.1,0-.22-.01-.37,0-.14-.01-.29-.02-.43,0-.15,0-.28-.02-.41,0-.13-.01-.23-.01-.3h.7c0,.2.01.39.02.58,0,.19.01.31.03.36.18-.32.41-.58.68-.78.28-.2.62-.3,1.02-.3.07,0,.14,0,.2.02.07.01.13.03.2.04l-.08.68c-.09-.03-.18-.05-.27-.05-.3,0-.56.05-.78.15-.22.1-.4.23-.55.4-.14.17-.25.37-.32.6-.07.23-.1.47-.1.74v2.92h-.7v-3.85Z"/><rect class="cls-1" x="127.83" y="42.76" width=".76" height="8.21"/><path class="cls-1" d="m130.65,42.21h.7v4.35h.02c.14-.29.37-.55.7-.76.32-.21.7-.32,1.14-.32s.76.07,1.02.2c.26.13.47.3.62.52.15.21.26.46.31.74.06.28.09.56.09.86v3.19h-.7v-3.15c0-.22-.02-.43-.06-.63-.04-.2-.11-.39-.2-.55-.1-.16-.23-.29-.41-.39-.17-.1-.4-.14-.68-.14-.26,0-.5.04-.72.13-.23.09-.43.22-.59.41-.17.18-.3.41-.39.68-.1.27-.14.6-.14.97v2.68h-.7v-8.77Z"/><path class="cls-1" d="m137.09,47.12c0-.1,0-.22-.01-.37,0-.14-.01-.29-.02-.43,0-.15,0-.28-.02-.41,0-.13-.01-.23-.01-.3h.7c0,.2.01.39.02.58,0,.19.01.31.03.36.18-.32.41-.58.68-.78.28-.2.62-.3,1.02-.3.07,0,.14,0,.2.02.07.01.13.03.2.04l-.08.68c-.09-.03-.18-.05-.27-.05-.3,0-.56.05-.78.15-.22.1-.4.23-.55.4-.14.17-.25.37-.32.6-.07.23-.1.47-.1.74v2.92h-.7v-3.85Z"/><path class="cls-1" d="m144.94,47.84c0-.24-.05-.46-.15-.67-.1-.21-.23-.39-.39-.55-.17-.16-.36-.28-.59-.38-.23-.09-.47-.14-.72-.14-.38,0-.69.08-.95.23-.25.15-.45.33-.6.53-.15.2-.25.4-.31.59-.06.19-.09.32-.09.39h3.8Zm.53,2.12c-.27.41-.6.7-1,.88-.4.18-.84.27-1.32.27-.41,0-.78-.07-1.11-.21-.33-.14-.62-.33-.86-.59-.24-.25-.42-.55-.55-.89-.13-.34-.19-.72-.19-1.14s.07-.77.2-1.11c.13-.34.32-.64.56-.89.24-.25.52-.45.85-.59.32-.14.68-.21,1.08-.21s.77.07,1.08.21c.31.14.58.33.79.57.21.24.37.5.48.81.11.3.16.61.16.92v.49h-4.5c0,.15.03.33.09.56.06.23.16.45.32.67.15.22.36.4.62.56.26.15.59.23,1,.23.36,0,.7-.09,1.03-.26.33-.17.59-.4.77-.7l.51.43Z"/><path class="cls-1" d="m157.18,50.44c-.48.27-.98.46-1.49.57-.51.11-1.04.17-1.57.17-.63,0-1.2-.11-1.72-.32-.52-.21-.97-.51-1.34-.89-.37-.38-.66-.84-.87-1.37-.21-.53-.31-1.11-.31-1.73s.1-1.2.31-1.73c.21-.53.5-.98.87-1.36.37-.38.82-.68,1.34-.9.52-.22,1.1-.32,1.72-.32,1.22,0,2.21.38,2.96,1.14l-.56.58c-.12-.15-.28-.28-.46-.41-.18-.13-.38-.24-.59-.32-.21-.09-.43-.16-.67-.21-.23-.05-.46-.08-.68-.08-.53,0-1.01.09-1.44.28-.43.19-.79.44-1.1.76-.3.32-.53.71-.7,1.15-.16.44-.24.92-.24,1.43s.08.99.24,1.43c.16.44.39.82.7,1.15.3.32.67.58,1.1.77.43.19.91.28,1.44.28.44,0,.85-.03,1.24-.1.39-.07.74-.2,1.06-.38v-2.76h-1.97v-.7h2.74v3.9Z"/><path class="cls-1" d="m163.42,47.84c0-.24-.05-.46-.15-.67-.1-.21-.23-.39-.39-.55-.17-.16-.36-.28-.59-.38-.23-.09-.47-.14-.72-.14-.38,0-.69.08-.95.23-.25.15-.45.33-.6.53-.15.2-.25.4-.31.59-.06.19-.09.32-.09.39h3.8Zm.53,2.12c-.27.41-.6.7-1,.88-.4.18-.84.27-1.32.27-.41,0-.78-.07-1.11-.21-.33-.14-.62-.33-.86-.59-.24-.25-.42-.55-.55-.89-.13-.34-.19-.72-.19-1.14s.07-.77.2-1.11c.13-.34.32-.64.56-.89.24-.25.52-.45.85-.59.32-.14.68-.21,1.08-.21s.77.07,1.08.21c.31.14.58.33.79.57.21.24.37.5.48.81.11.3.16.61.16.92v.49h-4.5c0,.15.03.33.09.56.06.23.16.45.32.67.15.22.36.4.62.56.26.15.59.23,1,.23.36,0,.7-.09,1.03-.26.33-.17.59-.4.77-.7l.51.43Z"/><path class="cls-1" d="m165.69,49.6c.15.29.36.5.65.66.29.15.59.23.9.23.15,0,.29-.02.44-.07.15-.05.28-.11.39-.2.12-.08.21-.19.28-.31.07-.12.11-.26.11-.41,0-.25-.08-.43-.24-.56-.16-.12-.35-.22-.59-.29-.23-.07-.49-.13-.77-.18-.28-.05-.53-.13-.76-.23-.23-.1-.43-.25-.59-.44-.16-.18-.24-.45-.24-.79,0-.26.05-.49.16-.68.11-.19.25-.35.42-.48.17-.13.37-.22.59-.28.22-.06.44-.09.66-.09.44,0,.82.08,1.14.24.32.16.57.42.75.76l-.63.37c-.13-.25-.29-.43-.49-.56-.2-.13-.45-.19-.77-.19-.12,0-.25.02-.39.06-.14.04-.26.09-.36.16-.11.07-.2.16-.27.27-.07.11-.11.23-.11.37,0,.24.08.42.24.53.16.12.35.21.59.27.23.07.49.12.77.17.28.05.53.12.77.23.23.1.43.26.59.45.16.2.24.48.24.84,0,.28-.05.52-.16.72-.1.2-.25.38-.43.52-.18.14-.39.24-.62.31-.23.07-.48.1-.73.1-.46,0-.89-.09-1.27-.27-.38-.18-.68-.45-.89-.82l.61-.42Z"/><path class="cls-1" d="m175.15,49.47c0,.1,0,.22.01.37,0,.14.01.29.02.43,0,.15,0,.28.02.41,0,.13.01.23.01.3h-.7c0-.2-.01-.39-.02-.58,0-.19-.01-.31-.03-.36h-.03c-.14.29-.37.55-.7.76-.32.21-.7.32-1.14.32s-.76-.07-1.03-.2c-.27-.13-.48-.3-.63-.52-.15-.21-.25-.46-.31-.74-.05-.28-.08-.56-.08-.86v-3.19h.7v3.15c0,.22.02.43.06.63.04.21.11.39.2.55.1.16.23.29.41.39.17.1.4.14.68.14.26,0,.5-.04.72-.13.23-.09.43-.22.59-.41.17-.18.3-.41.39-.68.1-.27.15-.6.15-.97v-2.68h.7v3.85Z"/><path class="cls-1" d="m177.06,47.12c0-.1,0-.22-.01-.37,0-.14-.01-.29-.02-.43,0-.15,0-.28-.02-.41,0-.13-.01-.23-.01-.3h.7c0,.2.01.39.02.58,0,.19.01.31.03.36h.03c.14-.29.37-.55.7-.76.33-.21.7-.32,1.14-.32s.76.07,1.02.2c.26.13.47.3.62.52.15.21.26.46.31.74.06.28.09.56.09.86v3.19h-.7v-3.15c0-.22-.02-.43-.06-.63-.04-.2-.11-.39-.2-.55-.1-.16-.23-.29-.41-.39-.17-.1-.4-.14-.68-.14-.26,0-.5.04-.72.13-.23.09-.43.22-.59.41-.17.18-.3.41-.39.68-.1.27-.14.6-.14.97v2.68h-.7v-3.85Z"/><path class="cls-1" d="m188.26,48.29c0-.3-.06-.59-.17-.85-.12-.27-.27-.5-.48-.7-.2-.2-.44-.35-.71-.47-.27-.12-.56-.17-.88-.17s-.62.06-.88.17c-.26.12-.49.27-.67.47-.18.2-.33.43-.42.7-.1.27-.15.55-.15.85s.05.58.15.85c.1.27.24.5.42.7.19.2.41.35.67.47.26.12.56.17.88.17s.61-.06.88-.17c.27-.12.51-.27.71-.47s.36-.43.48-.7c.12-.27.17-.55.17-.85m-.07,1.74h-.02c-.11.19-.24.35-.41.48-.16.14-.34.25-.53.34-.19.09-.39.15-.6.2-.21.04-.41.06-.61.06-.41,0-.79-.07-1.14-.21-.35-.14-.65-.33-.89-.59-.25-.25-.44-.55-.58-.89-.14-.34-.21-.72-.21-1.13s.07-.79.21-1.13c.14-.34.33-.64.58-.89.25-.25.55-.45.89-.59.35-.14.73-.21,1.14-.21.2,0,.41.02.61.06.21.04.41.11.6.2s.37.2.53.34c.16.14.3.3.41.48h.02v-4.35h.7v8.77h-.7v-.94Z"/><path class="cls-1" d="m190.6,42.21h.7v4.35h.02c.14-.29.37-.55.7-.76.32-.21.7-.32,1.14-.32s.76.07,1.02.2c.26.13.47.3.62.52.15.21.26.46.31.74.06.28.09.56.09.86v3.19h-.7v-3.15c0-.22-.02-.43-.06-.63-.04-.2-.11-.39-.2-.55-.1-.16-.23-.29-.41-.39-.17-.1-.4-.14-.68-.14-.26,0-.5.04-.72.13-.23.09-.42.22-.59.41-.17.18-.3.41-.39.68-.1.27-.14.6-.14.97v2.68h-.7v-8.77Z"/><path class="cls-1" d="m201.25,47.84c0-.24-.05-.46-.15-.67-.1-.21-.23-.39-.39-.55-.17-.16-.36-.28-.59-.38-.23-.09-.47-.14-.72-.14-.38,0-.69.08-.95.23-.25.15-.45.33-.6.53-.15.2-.25.4-.31.59-.06.19-.09.32-.09.39h3.8Zm.53,2.12c-.27.41-.6.7-1,.88-.4.18-.84.27-1.32.27-.41,0-.78-.07-1.11-.21-.33-.14-.62-.33-.86-.59-.24-.25-.42-.55-.55-.89-.13-.34-.19-.72-.19-1.14s.07-.77.2-1.11c.13-.34.32-.64.56-.89.24-.25.52-.45.85-.59.32-.14.68-.21,1.08-.21s.77.07,1.08.21c.31.14.58.33.79.57.21.24.37.5.48.81.11.3.16.61.16.92v.49h-4.5c0,.15.03.33.09.56.06.23.16.45.32.67.15.22.36.4.62.56.26.15.59.23,1,.23.36,0,.7-.09,1.03-.26.33-.17.59-.4.77-.7l.51.43Z"/><path class="cls-1" d="m203.61,45.62h.7v5.36h-.7v-5.36Zm-.17-2.12c0-.15.05-.27.15-.37.1-.1.22-.15.37-.15s.27.05.37.15c.1.1.15.22.15.37s-.05.27-.15.37c-.1.1-.22.15-.37.15s-.27-.05-.37-.15c-.1-.1-.15-.22-.15-.37"/><path class="cls-1" d="m208.9,46.24h-1.53v3.49c0,.24.07.43.2.56.13.13.31.2.54.2.13,0,.27-.02.4-.05.14-.04.26-.08.39-.13l.06.63c-.13.05-.28.09-.45.13-.17.04-.32.06-.45.06-.25,0-.46-.04-.64-.11-.18-.07-.32-.17-.43-.3-.11-.12-.19-.27-.24-.43-.05-.17-.08-.35-.08-.54v-3.49h-1.16v-.63h1.16v-1.54h.7v1.54h1.53v.63Z"/><path class="cls-1" d="m35.39,40.81c-13.89,12.77-25.55,5.09-21.01-5.18,6.78-12.67,22.96-11.94,35.18-11.29-2.22,3.58-8.63,11.89-14.16,16.48M84.67,5.21c9.75-5.31,19.02-2.1,9.52,6.85-9.82,8.04-26.04,9.39-26.04,9.39,0,0,8.76-12.01,16.52-16.24m71.76,25.11c.53-.65,1.66-2.01,2.32-2.4.66-.39,1.31-.6,1.58-.35.28.26.25.74-.08,1.18-.34.44-1.87,1.92-2.72,2.39-.85.47-1.6.65-1.73.49-.13-.14.08-.66.62-1.31m53.91.85c-.44-1.37-1.69-2.21-2.43-2.11-.74.12-.44,1.38-.29,2.34.26,1.65-.38,2.81-1.62,4.21-1.28,1.45-3.5,2.02-4.86,1.77-1.36-.25-1.4-2.36-.62-4.2,1.25-2.97,3.6-4.72,4.1-5.75.5-1.02-.57-1.14-1.36-1.04-.79.11-3.68.79-4.73,1.02-1.03.25-3.75,3.36-4.28,3.93-.55.57-1.66,1.92-2,1.92-.32,0,.06-.95.37-1.65.32-.69,1.86-3.32,2.47-4.14.59-.83.03-1.26-.41-1.26-.44,0-2.1.47-3.39.79-1.51.37-2.63,1.32-3.92,2.64-1.29,1.31-4.17,3.7-4.46,3.85-.29.17-.13-.64.06-1.34.17-.69,2.21-4.06,2.53-5.07.33-1-.88-.87-1.56-.85-.7.04-2.88.56-3.49.82-.6.24-1.77,1.72-2.7,2.76-.93,1.04-4.01,3.75-5.51,5.08-1.48,1.35-2.67,1.71-3.42,1.44-.76-.29-.41-1.79.29-3.09.71-1.3,3.39-5.23,3.95-5.93.56-.7.06-1.04-.51-1.05-.57-.03-3.47.4-3.86.45-.4.05-1.47,1.11-3.35,3.17-1.88,2.08-4.33,4.14-5.76,5.23-1.43,1.09-4.19,3.11-5.26,1.41-1.06-1.69.6-3.61.6-3.61,0,0,1.34.07,3-.37,1.66-.45,2.66-1.15,4.03-2.7,1.36-1.54.33-2.93-.05-3.36-.37-.43-1.51-1.3-4.46-.45-2.96.87-3.77,1.52-5.39,3.16-1.61,1.64-2.22,3.75-3.99,5.74-1.06,1.06-1.8,1.54-2.46,1.19-.68-.35-.77-2.25-.81-3.16-.05-.92-.14-2.35-.6-3.65-.48-1.31-2.03-1.4-3.4-.86-1.37.54-4.71,3.36-5.28,3.9-.58.55-.29-.43-.2-.69.08-.26.98-2.31,1.62-3.45.64-1.14,1.97-3.36,2.94-4.54.98-1.18,4.21-5.14,5.14-6.29.93-1.17.11-1.65-.62-1.76-.73-.09-2.76.64-4.37,1.88-1.63,1.23-3.78,3.85-5.08,5.6-1.3,1.77-3.64,6.1-4.53,7.36-.9,1.26-3.43,3.54-4.46,4.51-1.03.99-1.88,1.12-2.42.61-.52-.51-.42-3.44-.61-5.3-.17-1.84-1.24-2.53-3.05-2.2-1.81.35-4.69,2.85-5.27,3.37-.58.52-.91.41-.67-.05.16-.3.71-1.34,1.53-2.8.83-1.47,2.55-3.73,3.52-4.83.98-1.12,4.44-5.42,5.11-6.17.69-.76.32-1.33-.41-1.39-.73-.08-2.21.33-3.81,1.16-1.6.83-3.93,3.46-5.55,5.29-1.64,1.85-5.15,7.65-5.7,8.4-3.79,5.15-8.83,5.39-10.27,5.7-1.44.31-2.22-1.12-1.36-3.31.88-2.2,3.52-4.57,4.29-5.14.77-.57,2.18-1.19,2.65-.61.46.6-.56,1.91-.97,2.73-.42.83.3,1.73,1.93.46,1.61-1.27,1.43-2.65,1.23-3.38-.31-1.13-1.93-2.17-4.65-1.63-2.73.56-5.23,2.09-5.98,2.6-.78.52-1.69.94-2.34,1.17-.65.23-3.63,1.37-4.07,1.37-.44,0-.67-.55-.67-.55.11-.29.17-.63.17-.99,0-1.23-.82-2.23-1.82-2.22-1,0-1.81,1.01-1.8,2.24,0,1.08.67,1.98,1.5,2.17,0,0-.06.45-.3,1-.34.76-1.57,2.41-2.14,3.05-.55.63-1.31,1.19-2.84,1.73-3.2,1.09-4.99-6.01,4.49-10.66.63-.35-.2-1.14-1.22-1.13-3.81.04-6.65.6-9.69,6.24-2.76,6.45-18.02,9.19-7.98-7.59,2.31-.43,19.47-2.17,29.23-12.23,6.51-6.27,3.1-14.53-9.67-9.64-14.16,5.42-24.08,19.09-24.08,19.09l-5.97.04,12.68-18.02s.58-.86-.28-.86c-7.62.02-15.2-1.71-22.29-1.01-3.31.33-6.71.96-9.04,3.1-2.34,2.14-2.28,3.83-1.75,5.15.54,1.32,2.28,1.79,3.31,1.79s1.3-.47,1.3-.47c0,0-.85-2.21,1.73-4.35,2.57-2.13,4.5-3.04,8.47-3.39,6.08-.55,11.86.51,11.86.51,0,0-10.25,16.6-11.16,17.54-18.43-.82-30.74-.82-37.59,12.32-6.97,13.37,10.5,24.73,26.01,8.42,8.42-8.86,14.89-17.99,14.89-17.99,0,0,6.2.01,6.08,0-9.45,17.72,9.4,16.94,14.14,11.1-.09.95,1.13,3.36,3.97,3.35,1.84,0,3.93-.34,6-1.87,2.08-1.53,3.28-4.67,3.28-4.67,0,0,.34.02,1.1.01.74,0,2.78-.37,3.12-.45.34-.08.56-.01.13.7-.56.92-1.35,3.63,1.03,5.52,1.49,1.18,4.88.39,6.83-.23,2.13-.68,4.6-2.01,5.34-2.41.76-.42.55.37.39.58-.18.21-.4.48-1.11,1.44-.69.96-.17,1.01.48,1.11,1.27.21,3.22-.3,4.71-1.23.81-.5,1.38-1.3,2.99-3.07,1.6-1.79,3.47-2.86,4.52-3.11,1.07-.27.76,1.43.77,2.89,0,1.47.03,2.61.6,3.47.59.9,1.69,1,3.77.6,2.08-.38,4.4-2.54,4.88-2.82.47-.29.25.37.02.8-.25.47-1.04,1.55-.86,2.09.3.87,3.46.36,6.29-2.11.81-.71,1.35-1.46,1.96-1.93.63-.47,2.37-2.19,3.79-2.62,1.42-.41,1.19,2.13,1.26,2.85.06.71.19,2.05.77,3.1.7,1.27,2.38,1.25,4.42.82,1.86-.39,3.19-1.99,3.61-2.4.42-.42.76.08,1.02.78.29.75.75,1.58,2.42,1.96,1.67.38,4.91-.46,6.72-1.37,1.81-.9,3.92-2.77,4.93-3.61,1.01-.86.58.18.58.18,0,0-.24.9-.4,2.14-.15,1.13.57,1.92,2.16,2.38,1.33.39,3.83-.19,5.91-1.73.84-.62,3.56-3.02,4.81-3.88.7-.49.55,0,.55,0,0,0-.6.91-.88,1.36-.29.47-1.35,2.26-1.78,3.35-.43,1.11.76.93,1.84.54,6.2-2.21,10.06-5.81,10.6-6.2.51-.37.47.21.43.34-.04.13-.73,1.38-1.84,3.27-.55.94-1.04,1.78-.91,2.35.13.57,1.7-.09,2.53-.45,3.46-1.48,4.68-2.09,8.35-5.47.27-.25.72-.44.85-.39.13.07-.35.94-.57,1.35-.22.42-.58,1.56-.21,3.18.36,1.65,2.42,2.38,4.29,2.62,1.88.22,4.24.43,6.88-1.11,2.62-1.53,3.76-4.88,3.32-6.24"/></svg>