<svg xmlns:xlink="http://www.w3.org/1999/xlink" width="152" height="73" viewBox="0 0 152 73" xmlns="http://www.w3.org/2000/svg"><g fill="#1A1919" fill-rule="evenodd"><path d="M25.024 5.971c2.456-2.237 2.9-3.014.771-3.132v-.424h5.544v.424c-1.52.165-2.081.613-4.982 3.179l-4.07 3.603 6.2 7.065c1.426 1.625 1.987 2.238 3.32 2.38v.423H24.86v-.423c1.801-.095 1.404-.895.608-1.814l-5.684-6.5 5.24-4.78zm-5.263 10.08c0 2.613.21 2.733 2.316 3.015v.423h-7.368v-.423c2.105-.282 2.314-.402 2.314-3.014V5.853c0-2.614-.21-2.732-2.314-3.014v-.424h7.368v.424c-2.106.282-2.316.4-2.316 3.014v10.199zM33.849 19.066c2.106-.282 2.316-.402 2.316-3.014V5.853c0-2.614-.21-2.732-2.316-3.014v-.424h7.37v.424c-2.107.282-2.318.4-2.318 3.014v11.775c0 .85.141 1.06 1.03 1.06h.398c4.233-.024 5.474-.54 6.877-4.521h.444l-.889 5.346c-1.59-.024-3.765-.024-5.075-.024H33.85v-.423M53.879 12.778h5.87l-2.923-7.536-2.947 7.536zm-5.147 6.288c1.568-.142 1.801-.566 3.135-4.003l5.03-12.765c.49-.07.98-.353 1.309-.802h.093l6.012 15.214c.702 1.79.936 2.26 2.457 2.356v.423h-6.855v-.423c1.684-.189 2.058-.636 1.592-1.838l-1.288-3.297h-6.806l-.117.33c-1.685 4.334-1.31 4.616.702 4.805v.423h-5.264v-.423zM68.972 18.524V12.73h.468c.585 5.228 2.715 6.216 4.96 6.216 2.01 0 3.951-1.083 3.951-3.32 0-1.671-1.449-2.567-3.32-3.416l-1.896-.847C70.656 10.257 69.09 8.68 69.09 6.42c0-2.615 2.525-4.546 5.66-4.546 1.708 0 3.649.4 4.795 1.107l.07 4.922h-.468c-.585-4.004-2.316-5.182-4.444-5.182-1.895 0-3.462.99-3.462 2.756 0 1.79 1.404 2.566 2.597 3.108l1.989.896c2.689 1.2 4.747 2.472 4.747 5.157 0 3.321-3.042 5.158-6.174 5.158-2.154 0-4.164-.541-5.428-1.272M84.743 18.524V12.73h.469c.584 5.228 2.712 6.216 4.957 6.216 2.012 0 3.955-1.083 3.955-3.32 0-1.671-1.451-2.567-3.323-3.416l-1.895-.847C86.427 10.257 84.86 8.68 84.86 6.42c0-2.615 2.528-4.546 5.663-4.546 1.706 0 3.648.4 4.794 1.107l.07 4.922h-.468c-.585-4.004-2.316-5.182-4.444-5.182-1.895 0-3.462.99-3.462 2.756 0 1.79 1.403 2.566 2.597 3.108l1.987.896c2.691 1.2 4.749 2.472 4.749 5.157 0 3.321-3.04 5.158-6.175 5.158-2.151 0-4.163-.541-5.427-1.272M104.492 16.052c0 2.612.211 2.732 2.316 3.014v.423h-7.369v-.423c2.105-.282 2.315-.402 2.315-3.014V5.853c0-2.614-.21-2.732-2.315-3.014v-.424h7.369v.424c-2.105.282-2.317.4-2.317 3.014v10.199M119.84 5.971c2.455-2.237 2.899-3.014.77-3.132v-.424h5.546v.424c-1.521.165-2.082.613-4.983 3.179l-4.071 3.603 6.2 7.065c1.426 1.625 1.987 2.238 3.32 2.38v.423h-6.946v-.423c1.8-.095 1.404-.895.608-1.814l-5.686-6.5 5.242-4.78zm-5.264 10.08c0 2.613.21 2.733 2.316 3.015v.423h-7.368v-.423c2.105-.282 2.316-.402 2.316-3.014V5.853c0-2.614-.212-2.732-2.316-3.014v-.424h7.368v.424c-2.106.282-2.316.4-2.316 3.014v10.199zM15.316 44.21v-5.795h.468c.585 5.228 2.714 6.217 4.96 6.217 2.011 0 3.952-1.082 3.952-3.32 0-1.67-1.449-2.566-3.321-3.415l-1.895-.847c-2.479-1.107-4.046-2.686-4.046-4.946 0-2.614 2.525-4.545 5.66-4.545 1.707 0 3.65.4 4.796 1.107l.07 4.922h-.468c-.586-4.005-2.316-5.181-4.444-5.181-1.894 0-3.462.989-3.462 2.754 0 1.79 1.402 2.568 2.597 3.11l1.987.895c2.69 1.201 4.749 2.471 4.749 5.158 0 3.32-3.042 5.157-6.175 5.157-2.153 0-4.165-.542-5.428-1.272M33.965 44.727c2.34-.212 2.573-.589 2.573-2.991V28.83h-.725c-3.485 0-4.585.73-5.872 4.616h-.444l.678-5.415c1.778.07 3.814.07 5.287.07h4.888c1.45 0 3.486 0 5.264-.07l.678 5.415h-.42c-1.31-3.886-2.41-4.616-5.895-4.616h-.702v12.906c0 2.402.233 2.779 2.572 2.991v.447h-7.883v-.447M53.784 41.736c0 2.614.21 2.732 2.316 3.014v.424h-7.368v-.424c2.105-.282 2.315-.4 2.315-3.014V31.539c0-2.614-.21-2.732-2.315-3.015V28.1H56.1v.424c-2.106.283-2.316.4-2.316 3.015v10.197M58.816 44.75c2.106-.282 2.316-.4 2.316-3.014V31.539c0-2.614-.21-2.732-2.316-3.015V28.1h8.867c1.473 0 3.508 0 5.238-.07l.655 5.276h-.42c-1.31-4.146-3.064-4.357-7.416-4.357h-1.87v6.9h3.204c1.334 0 2.177-.66 2.409-2.638h.421v6.312h-.421c-.233-1.98-1.076-2.638-2.409-2.638H63.87v4.875c0 2.332.047 2.755 2.526 2.967v.447h-7.58v-.424M80.037 44.727c2.34-.212 2.574-.589 2.574-2.991V28.83h-.725c-3.484 0-4.585.73-5.87 4.616h-.446l.68-5.415c1.777.07 3.811.07 5.284.07h4.89c1.45 0 3.484 0 5.263-.07l.678 5.415h-.42c-1.31-3.886-2.41-4.616-5.896-4.616h-.702v12.906c0 2.402.236 2.779 2.574 2.991v.447h-7.884v-.447M94.407 28.524V28.1h7.346v.424c-2.082.283-2.317.4-2.317 3.015v6.947c0 3.674 1.286 5.817 4.398 5.817 3.578 0 4.655-2.708 4.679-6.146v-6.618c0-2.614-.234-2.732-2.316-3.015V28.1h5.707v.424c-2.105.283-2.316.4-2.316 3.015v6.595c0 4.944-2.081 7.347-6.431 7.347-4.727 0-6.434-2.71-6.434-6.735v-7.207c0-2.59-.234-2.732-2.316-3.015M125.946 28.524V28.1h5.709v.424c-2.084.283-2.316.4-2.316 3.015v13.824h-1.172L117.502 31.8v9.937c0 2.614.233 2.732 2.317 3.014v.424h-5.71v-.424c2.083-.282 2.317-.4 2.317-3.014V30.432l-.094-.118c-.772-1.013-1.262-1.507-1.94-1.836V28.1h3.718l10.152 12.929v-9.49c0-2.614-.21-2.732-2.316-3.015M151.521 37.167v.494c-1.405.189-1.497.612-1.497 2.968v2.943c-1.92 1.391-5.055 1.91-7.065 1.91-5.778 0-8.796-4.124-8.796-8.857 0-5.51 4.093-8.995 9.309-8.995 2.223 0 4.165.4 5.428.894l.445 5.229h-.422c-.959-3.816-2.877-5.275-5.754-5.275-2.9 0-5.988 2.118-5.988 8.196 0 4.78 2.407 7.912 6.058 7.912 1.522 0 4.023-.165 4.023-2.285v-1.672c0-2.356-.046-2.826-2.106-2.968v-.494h6.365M38.568 54.209c-1.684.141-2.128.422-3.159 4.003l-3.765 12.929h-1.263L26.264 58.99 22.73 71.14h-1.286l-4.959-14.647c-.609-1.813-.889-2.143-2.433-2.284v-.425h6.878v.425c-1.591.188-2.036.54-1.638 1.766l3.486 10.786 2.784-9.774-1.077-3.203h3.04l4.189 12.977 2.292-8.007c1.216-4.286 1.146-4.357-.773-4.545v-.425h5.334v.425M49.267 70.86h-8.632v-.426c2.106-.28 2.316-.399 2.316-3.014V57.223c0-2.614-.21-2.732-2.316-3.014v-.425h8.304c1.473 0 3.508 0 5.264-.07l.631 5.276h-.422c-1.286-4.146-3.064-4.359-7.414-4.359h-1.311v6.902h3.159c1.334 0 2.175-.66 2.409-2.637h.421v6.31h-.421c-.234-1.977-1.076-2.637-2.409-2.637h-3.159v6.405c0 .873.119 1.084 1.077 1.084h.49c4.422 0 6.34-.54 7.72-4.45h.445l-.912 5.275c-1.779-.023-3.767-.023-5.24-.023M63.354 67.42c0 2.615.212 2.733 2.316 3.014v.426h-7.368v-.426c2.105-.28 2.316-.399 2.316-3.014V57.223c0-2.614-.212-2.732-2.316-3.014v-.425h7.368v.425c-2.105.282-2.316.4-2.316 3.014V67.42M89.323 54.209c-2.105.282-2.316.4-2.316 3.014V67.42c0 2.615.21 2.733 2.316 3.014v.426h-7.369v-.426c2.106-.28 2.316-.399 2.316-3.014V56.045l-5.825 14.18h-.49l-6.153-14.532V67.42c0 2.615.211 2.733 2.316 3.014v.426h-5.73v-.426c2.105-.28 2.314-.399 2.314-3.014V57.223c0-2.614-.21-2.732-2.314-3.014v-.425h5.754l4.911 11.966 4.866-11.966h5.404v.425M96.418 64.147h5.871l-2.923-7.536-2.948 7.536zm-5.145 6.287c1.568-.14 1.8-.565 3.134-4.002l5.03-12.764c.49-.071.98-.355 1.309-.802h.095l6.01 15.214c.702 1.79.936 2.26 2.457 2.354v.426h-6.854v-.426c1.684-.187 2.059-.636 1.59-1.836l-1.287-3.297h-6.806l-.116.33c-1.684 4.333-1.311 4.616.7 4.803v.426h-5.261v-.426zM118.203 54.631h-1.895v7.28h1.895c2.853 0 4.515-.615 4.515-3.652 0-3.014-1.662-3.628-4.515-3.628zm-6.947 15.803c2.105-.28 2.315-.399 2.315-3.014V57.223c0-2.614-.21-2.732-2.314-3.014v-.425h2.83c1.403 0 3.367-.024 4.303-.024 4.047 0 7.344.967 7.344 4.499 0 2.591-1.8 3.815-4.373 4.287l3.508 5.51c1.101 1.72 1.779 2.238 3.159 2.378v.426h-4.771c-.376-.778-1.195-2.214-1.919-3.37l-1.216-1.907c-.866-1.318-1.334-2.212-1.755-2.803h-2.059v4.664c0 2.591.212 2.71 2.363 2.99v.426h-7.415v-.426zM0 72.91h2.126V.224H0z"/></g></svg>