<?xml version="1.0" encoding="utf-8"?>
<!-- Generator: Adobe Illustrator 27.7.0, SVG Export Plug-In . SVG Version: 6.00 Build 0)  -->
<svg version="1.1" xmlns="http://www.w3.org/2000/svg" xmlns:xlink="http://www.w3.org/1999/xlink" x="0px" y="0px"
	 viewBox="0 0 1412.7 388.7" style="enable-background:new 0 0 1412.7 388.7;" xml:space="preserve">
<style type="text/css">
	.st0{fill:#FFED00;}
	.st1{fill:#EF7C00;}
	.st2{fill:#2F2483;}
	.st3{fill:#009EE3;}
	.st4{fill-rule:evenodd;clip-rule:evenodd;fill:#009EE3;}
</style>
<g id="Sunflower">
	<path class="st0" d="M1022.4,262.2c-1.7,10.7-5.8,35.6,7.8,50.1c8.2,8.8,21.6,12.4,39.8,10.7c3,1.1,6.1,1.7,9.1,1.7
		c4.7,0,9.5-1.4,14.1-4.2c12.8-7.6,21.5-23.8,22.2-28.7l0-0.1l-0.1,0c-2.7-1.8-1.5-9.2-0.1-17.7c1.8-11.1,4.1-24.9-1.3-32.3
		c-2.1-2.9-5.3-4.6-9.4-5.2c0.2-1.6-0.4-3-1.6-4.1c-4.1-3.4-14.5-3.6-22.5-3.2c-8.9,0.5-18.3,2-21.8,3.2c-3.3-1.1-7.8,0-13.2,3.3
		c-10.6,6.4-22,19.8-22.5,23.8C1022.7,260.2,1022.5,261.1,1022.4,262.2z M1049.4,253.2c8.5-3.7,11.6-0.7,12.6,1.5
		c1.7,3.6,0.3,9.2-2,10.4c-9,2.7-11.7-1.7-12.5-3.7C1046.3,258.3,1047.3,254.2,1049.4,253.2z M1044.1,283.6c0.2-0.1,0.5-0.2,0.9-0.2
		c1.4,0,3.8,1,7.8,4.7c5,4.1,11.7,5.5,18.9,3.8c8-1.9,15.4-7.2,18-12.9c0.1,0.1,0.3,0.3,0.5,0.4c0,1.9,0.4,5.3,0.7,8.4
		c0.5,4.9-1.6,9.2-6.2,12.5c-8.9,6.3-23.9,7-31.4,3.3c-6.6-3.2-10.8-12.3-10.6-16.9C1042.7,285.5,1042.9,284.1,1044.1,283.6z
		 M1095.8,257.9c-0.1,0.4-0.1,0.8-0.2,1.2c-0.7,4.8-3.7,5-7.5,5.2c-1,0-2.1,0.1-3.2,0.2c-3.4-2.3-5.1-5.6-4.6-8.6
		c0.5-3.2,3.2-5.8,7.8-7.3C1097,250.2,1096.5,253.5,1095.8,257.9z M998.9,209.2c0.4-2.6,1.3-4.3,2.8-4.9c2.6-1,6.3,1.2,8.9,3.3
		c6.6,5.2,13.2,14.3,12.8,16.7l0,0l0,0c-2.1,1.6-4.6,2.4-7.2,2.4c-2.7,0-5.7-0.8-8.5-2.5C1002.6,221.3,998,215.5,998.9,209.2z
		 M1042.7,175.5l0-0.1l0.1,0c6.9,2.1,11,7.5,10.6,11.1c7.4,14.5,6.5,23.2,3.5,26.3c-0.9,0.9-2,1.3-3.1,1.3c-0.8,0-1.7-0.2-2.5-0.6
		C1044.9,210.4,1039.6,197.1,1042.7,175.5z M972,261.6l-0.1,0l0-0.1c0.2-1.4,2.1-13.6,8.4-15.1c3.9-0.9,8.6,2.5,14,10.2
		c4.9,3.5,7.1,5.8,6.5,7.1c-0.4,0.9-2,1.3-4.3,1.3c-4.1,0-10.4-1.1-16.7-2.1C977.1,262.4,974.4,262,972,261.6z M1126.4,235.2
		c-0.4-4,7.6-14,23.7-25.3l0,0c8.6-1.4,14.3-0.7,15.4,1.9c1,2.4-1.7,6-8.2,10.8l0,0c-13,9.4-23.2,14.7-28,14.7
		c-0.7,0-1.2-0.1-1.7-0.3C1126.9,236.6,1126.5,236,1126.4,235.2z M1093.8,197.2c-1.1-6.5,0.1-15.1,12-19l0.1,0l0,0.1
		c5.7,12.3,4.1,15.8,1.6,21.5c-1.5,3.3-3.3,7.3-4.2,14.2c0,0.3-0.2,0.4-0.4,0.4c0,0,0,0,0,0C1101.5,214.3,1095.3,206.1,1093.8,197.2
		z M1022,353.3c1,2-1.3,8.3-5,13.4c-3.7,5.2-7.9,8.1-11.6,8.1c-0.3,0-0.6,0-1-0.1l-0.1,0l0-0.1c1.4-9.7,11.3-29,15.8-30.8
		c0.5-0.2,1-0.2,1.4,0.1C1022.6,344.9,1022.8,348,1022,353.3z M1139.9,341c3.8,4.6,5.8,11,5.8,18.3v0.1l-0.1,0
		c-0.7,0.1-1.3,0.1-1.9,0.1c-1.3,0-2.5-0.1-3.7-0.3c-1.8-0.2-3.6-0.4-5.8-0.2l0,0l0,0c-6.9-4.4-11.9-8.6-14.7-12.6
		c-3-4.2-2.9-7.1-2.2-8.8c1.3-3.3,5.7-4.8,10.9-3.8C1132.5,334.6,1136.7,337.2,1139.9,341z M1181.1,304.1c1,1.1,1.3,2.5,1.1,4.2l0,0
		l0,0c-7.7,5.4-17.7,6.7-23,7c-1.2,0.1-2.3,0.1-3.4,0.1c-6.4,0-12.1-1.1-15.1-2.9c-1.5-1-2.3-2.1-2.1-3.3c0.4-2.9,5.9-5.8,15.8-8.6
		l0,0l0,0c2.2,0.3,5.2,0.3,8.5,0.2C1170,300.9,1178.1,300.7,1181.1,304.1z M977.2,302.1c-6.1,2.9-13.1,5.1-16.7,5.1l-0.1,0l0-0.1
		c0.1-0.9,7.6-18.3,17.3-20.8c4.1-1.1,8.1,0.8,11.6,5.5l0,0l0,0C988.9,295,984.5,298.7,977.2,302.1z M1181.7,268.9
		c-4.5,2.9-12.2,5.7-19.5,7.2c-3.4,0.7-6.3,1-8.7,1c-3.1,0-5.3-0.6-6.1-1.7c-1.3-1.6,0-4.2,3.7-7.8c3.4-3.2,25.7-14.6,32.9-10.9
		c1.8,0.9,2.5,2.6,2.1,5.1C1187.2,264,1185.7,266.5,1181.7,268.9z M1130.2,279.3c-2.4,16.8-9.5,65.7-52,65.7c-2.7,0-5.6-0.2-8.6-0.6
		c-14.5-2-26.6-5.4-36.1-10c-8.5-4.1-15.2-9.4-19.7-15.6c-7.2-9.8-9.4-22-6.8-37.4l0.4-2.3l-0.2,2.3c-1,13.8,2.8,25.3,11.3,34.2
		c9.6,10,25.4,16.9,46.9,20.3h0c15.9,2.9,29.2,0.7,39.4-6.7c13.2-9.5,21.5-27.1,25.4-53.8l0,0c0.1-0.2,0.2-0.3,0.3-0.3
		c0.2,0.1,0.2,0.4-0.3,3.5C1130.3,278.9,1130.3,279.1,1130.2,279.3z M1105.7,363.6c2.7,4.8,4.3,7.8-1.1,18.8l0,0.1l-0.1,0
		c-11.2-2.5-13-9.2-12.6-14.4c0.7-8.1,7.3-16.9,8.8-16.9c0,0,0,0,0,0c0.2,0,0.3,0.1,0.4,0.3C1102.2,357.4,1104.1,360.9,1105.7,363.6
		z M988.8,349.7c-2.3,1.4-4.1,2.2-5.4,2.2c-0.7,0-1.2-0.2-1.6-0.6c-4-3.5,4.6-22.5,5-23.3l0,0l0,0c12.9-7.3,16.9-5.1,18.1-3.1
		C1007.7,329.6,1000.9,342,988.8,349.7z M1065.1,368.4c0.6,7.1,1.4,16-4.3,20.3l0,0l-0.1,0l-4.3-1.8l0,0c-3.2-8-4.7-15.8-4.3-22.4
		c0.3-5.4,1.9-9.9,4.3-12.3c1.5-1.5,3.1-2,4.5-1.4c2.4,0.9,3.8,4.6,4,9.9l0,0C1064.6,362.5,1064.8,365.4,1065.1,368.4z"/>
	<path class="st1" d="M972.8,254.3l-0.1,0l0-0.1c0.2-1.4,2.1-13.6,8.4-15.1c3.9-0.9,8.6,2.5,14,10.2c4.9,3.5,7,5.8,6.5,7.1
		c-0.4,0.9-1.9,1.2-4.3,1.2c-4.1,0-10.4-1.1-16.6-2.1C977.9,255,975.2,254.6,972.8,254.3z M990.2,284.6L990.2,284.6L990.2,284.6
		c-3.6-4.8-7.5-6.7-11.7-5.6c-9.7,2.5-17.1,19.9-17.3,20.8l0,0.1l0.1,0c3.5,0,10.5-2.2,16.7-5.1
		C985.3,291.3,989.7,287.6,990.2,284.6z M1022.3,336.6c-0.4-0.3-0.8-0.3-1.4-0.1c-4.5,1.8-14.4,21.1-15.8,30.8l0,0.1l0.1,0
		c0.3,0,0.6,0.1,1,0.1c3.7,0,7.9-2.9,11.6-8.1c3.7-5.2,6-11.4,5-13.4C1023.6,340.6,1023.4,337.5,1022.3,336.6z M1103.7,206.9
		C1103.7,206.9,1103.7,206.9,1103.7,206.9c0.1,0,0.3-0.1,0.4-0.4c1-6.9,2.8-10.9,4.2-14.2c2.6-5.7,4.1-9.2-1.6-21.5l0-0.1l-0.1,0
		c-11.9,3.9-13.1,12.5-12,19C1096.1,198.7,1102.3,206.9,1103.7,206.9z M1065.7,353.1L1065.7,353.1c-0.2-5.4-1.6-9-4-9.9
		c-1.4-0.6-3.1-0.1-4.5,1.4c-2.4,2.4-4,6.9-4.3,12.3c-0.4,6.7,1.1,14.5,4.3,22.4l0,0l4.3,1.8l0.1,0l0,0c5.7-4.3,4.9-13.1,4.3-20.3
		C1065.6,358,1065.4,355.1,1065.7,353.1z M1128.4,229.5c0.5,0.2,1,0.3,1.7,0.3c4.8,0,15-5.3,28-14.7l0,0c6.4-4.8,9.2-8.4,8.2-10.8
		c-1.1-2.6-6.9-3.3-15.4-1.9l0,0c-16,11.3-24,21.3-23.7,25.3C1127.3,228.6,1127.7,229.2,1128.4,229.5z M1052,206.1
		c0.9,0.4,1.7,0.6,2.5,0.6c1.2,0,2.2-0.4,3.1-1.3c3-3,3.9-11.7-3.5-26.3c0.5-3.6-3.6-8.9-10.6-11.1l-0.1,0l0,0.1
		C1040.4,189.8,1045.7,203,1052,206.1z M1008.5,216.8c2.9,1.7,5.8,2.5,8.5,2.5c2.6,0,5.1-0.8,7.2-2.4l0,0l0,0
		c0.4-2.5-6.2-11.5-12.8-16.7c-2.6-2.1-6.3-4.3-8.9-3.3c-1.5,0.6-2.5,2.2-2.8,4.9C998.8,208.1,1003.4,213.9,1008.5,216.8z
		 M1005.7,317.4c-1.2-2-5.2-4.3-18.1,3.1l0,0l0,0c-0.4,0.8-9,19.8-5,23.3c0.4,0.4,1,0.6,1.6,0.6c1.3,0,3.1-0.7,5.4-2.2
		C1001.7,334.6,1008.5,322.2,1005.7,317.4z M1128.8,326.4c-5.2-1-9.6,0.5-10.9,3.8c-0.7,1.7-0.8,4.5,2.2,8.8
		c2.8,4,7.8,8.2,14.7,12.6l0,0l0,0c2.2-0.2,4,0,5.8,0.2c1.2,0.2,2.4,0.3,3.7,0.3c0.6,0,1.3,0,1.9-0.1l0.1,0v-0.1
		c0-7.3-2-13.6-5.8-18.3C1137.5,329.8,1133.3,327.2,1128.8,326.4z M1163.6,293.6c-3.2,0-6.3,0.1-8.5-0.2l0,0l0,0
		c-9.9,2.7-15.4,5.7-15.8,8.6c-0.2,1.2,0.6,2.3,2.1,3.3c3,1.8,8.7,2.9,15.1,2.9c1.1,0,2.3,0,3.4-0.1c5.3-0.3,15.2-1.6,23-7l0,0l0,0
		c0.2-1.7-0.1-3.1-1.1-4.2C1178.9,293.4,1170.8,293.5,1163.6,293.6z M1186.9,254.5c0.4-2.5-0.4-4.2-2.1-5.1
		c-7.2-3.7-29.5,7.7-32.9,10.9c-3.7,3.5-5,6.2-3.7,7.8c0.9,1.1,3,1.7,6.1,1.7c2.4,0,5.4-0.3,8.8-1c7.3-1.5,14.9-4.3,19.5-7.2
		C1186.5,259.1,1188,256.6,1186.9,254.5z M1131.1,271.9c-2.4,16.8-9.5,65.7-52,65.7c-2.7,0-5.6-0.2-8.6-0.6
		c-15.4-2.2-28.1-5.8-37.9-10.8c-8.7-4.5-15.2-10.2-19.5-16.9c-5.2-8.3-7.1-18.1-5.8-30.2c1.1-10.3,4.4-20.4,7-28.6l0.3-0.9
		c2.8-7.9,8.8-14,18.2-18.6c8.4-4.1,18.9-6.7,29-9.2c6.2-1.5,12.6-3.1,18.6-5.1l0,0l0,0c3.2,1.3,6.7,2.3,10.4,3.4
		c6.8,2,13.8,4.1,19.5,7.9v0c7,4.7,12.9,12.4,16.7,21.4C1130.5,257.3,1131.9,265.7,1131.1,271.9z M1115,273.9
		c1.8-11,4.1-24.8-1.3-32.1c-2.1-2.8-5.2-4.6-9.4-5.2l-0.1,0l0-0.1c0.2-1.6-0.3-2.9-1.6-4c-7.4-6.2-37.7-2-44.2,0l0,0l0,0
		c-3.3-1.1-7.7,0-13,3.2c-10.5,6.4-21.9,19.7-22.4,23.7c-0.1,0.8-0.3,1.7-0.4,2.7c-1.7,10.6-5.8,35.5,7.7,49.9
		c8.1,8.7,21.5,12.3,39.7,10.6l0,0l0,0c7.7,2.9,15.5,2.1,23.1-2.4c12.7-7.5,21.3-23.5,22.1-28.5
		C1112.4,289.8,1113.6,282.4,1115,273.9z M1088,248.3L1088,248.3L1088,248.3c-4.7,1.5-7.6,4.2-8,7.5c-0.5,3.2,1.3,6.5,4.8,8.9l0,0
		l0,0c1.1-0.1,2.2-0.2,3.2-0.2c3.9-0.2,7-0.3,7.7-5.3c0.1-0.4,0.1-0.8,0.2-1.2C1096.7,253.5,1097.2,250,1088,248.3z M1054.7,266.2
		c1.5,0,3.2-0.3,5.3-0.9c2.4-1.3,3.9-7,2.1-10.7c-1.1-2.2-4.2-5.4-12.9-1.6c-2.2,1-3.3,5.2-2,8.5
		C1047.8,263.1,1049.6,266.2,1054.7,266.2z M1090.4,279.3C1090.4,279.3,1090.4,279.3,1090.4,279.3c0.3-0.2,0.2-1,0.1-1.2
		c-0.1-0.1-0.1-0.1-0.2-0.1c-0.1,0-0.2,0.4-0.2,1.1c-0.1,0-0.2-0.2-0.4-0.4l-0.1-0.1l-0.1,0.2c-2.6,5.8-10,11.1-18,13
		c-7.2,1.7-13.8,0.3-18.7-3.8c-4-3.7-7.1-5.3-8.9-4.5c-1,0.4-1.5,1.5-1.6,3.1c-0.1,4.7,4.1,13.9,10.8,17.1c3,1.5,7.2,2.2,11.7,2.2
		c6.8,0,14.5-1.8,19.9-5.6c4.7-3.3,6.9-7.7,6.3-12.7C1090.6,282.9,1090.4,280.5,1090.4,279.3z M1101.9,344.1c0-0.2-0.2-0.3-0.4-0.3
		c0,0,0,0,0,0c-1.6,0.1-8.2,8.8-8.8,16.9c-0.4,5.2,1.4,11.9,12.6,14.4l0.1,0l0-0.1c5.4-11.1,3.8-14,1.1-18.8
		C1105,353.5,1103.1,350,1101.9,344.1z"/>
</g>
<g id="Schuchort">
	<path class="st2" d="M160.6,259.3c-3.3-3.4-7.5-6.7-12.7-9.8l10.5-1.4l-1.1-11l-5.3-53l-1.7-17.5l-15.3,8.5
		c-0.9,0.5-1.8,0.9-2.7,1.3c-0.9,0.4-1.5,0.7-1.9,0.8c-0.3,0.1-0.6,0.2-1,0.3l-0.1,0l0,0c0.2,0,0.4-0.1,0,0
		c-0.3,0.1-0.4,0.1-0.5,0.1v0h0c-1.8,0-4.3-0.2-7.6-0.5c-3.4-0.4-8-1-13.7-1.8c-4.6-0.7-9.1-1.3-13.4-1.7c0,0-0.8-0.1-2.4-0.2
		c-4.9-0.4-9.3-0.7-13.2-0.7v0h0c-10.8,0-20.7,1.4-29.6,4.1c-9.3,2.8-17.3,7.1-24.2,12.8c-5.9,4.8-10.5,10.5-14.1,16.9
		c-0.8,1.4-1.4,2.7-1.9,3.8c-3.5,7.8-5.3,16.5-5.3,26h0v0c0,10.4,2.2,19.6,6.6,27.7c0.9,1.6,1.8,3.1,2.9,4.7c1,1.5,2.1,2.9,3.3,4.2
		l0,0l0,0l0.1,0.1c0.6,0.7,1.3,1.4,1.9,2.1l-6.5,0.2L0,275.6l0.7,11.7L5,357.9l1.2,20.6l16.9-11.8c1-0.7,2-1.3,2.9-1.8
		c0.8-0.4,1.4-0.7,1.9-0.9l0.1,0c0.3-0.1,0.7-0.2,1.2-0.3c0.4-0.1,0.9-0.1,1.4-0.1c0.9,0,4.2,0.5,9.8,1.4c0.4,0.1,1.7,0.3,3.9,0.7
		c0.3,0.1,1.8,0.3,4.5,0.8l0,0c4.9,0.9,9.8,1.6,14.7,2.1c0.3,0,1.2,0.1,2.7,0.3c5.6,0.5,11.1,0.8,16.3,0.8v0h0c13,0,25-1.6,35.9-4.7
		c11.2-3.2,21-8,29.4-14.5c7.3-5.6,13.1-11.9,17.4-19.1c0.9-1.4,1.7-2.9,2.4-4.3c4.4-8.9,6.7-18.8,6.7-29.8h0v0
		c0-7.6-1.1-14.5-3.3-20.7C168.7,269.8,165.2,264.1,160.6,259.3z M141.3,340.3c-14.7,11.2-34.1,16.8-58.3,16.8c-9.7,0-20.3-1-31.8-3
		c-11.5-2-18.3-3-20.2-3c-2.3,0-4.5,0.4-6.6,1.2c-2.2,0.8-4.6,2.1-7.4,4.1l-4.3-70.6l6.8-0.2c2.6,16.5,8.8,29.1,18.6,38
		c9.8,8.9,22.5,13.3,38.1,13.3c10.6,0,18.8-2,24.5-5.9c5.8-3.9,8.7-9.3,8.7-16.3c0-10-9.3-18-27.7-23.8c-2.1-0.7-3.7-1.1-4.8-1.5
		l-20-6.6c-14.3-4.7-24.8-10.8-31.5-18.4c-6.7-7.6-10-17.3-10-29.1c0-15.8,5.7-28.4,17.1-37.8c11.4-9.5,26.9-14.2,46.4-14.2
		c7.1,0,16.2,0.8,27.4,2.5c11.2,1.7,18.8,2.5,22.9,2.5c1.5,0,3.3-0.3,5.1-0.9c1.9-0.6,4-1.6,6.6-3l5.3,53l-7,1
		c-5.8-11.2-12.8-19.9-21-26c-8.2-6.1-16.8-9.2-26-9.2c-6.9,0-12.5,1.7-16.9,5c-4.3,3.3-6.5,7.5-6.5,12.5c0,4.3,1.5,7.8,4.4,10.5
		c2.9,2.7,8.8,5.5,17.7,8.3l21,6.5c20.1,6.4,33.6,13.3,40.6,20.6c7,7.3,10.5,17.3,10.5,29.9C163.3,314.4,156,329.1,141.3,340.3z
		 M72.9,301.1l0.2,0c0.9,0.3,1.3,0.4,1.4,0.4l0,0c-0.1,0-0.3-0.1,0,0c1,0.3,2.3,0.7,3.3,1l0,0l0,0l0,0l0,0l0,0
		c7.7,2.4,13.3,5.2,16.7,8.1c1.9,1.6,2.9,3.2,2.9,4.7c0,2.2-0.5,3.9-1.6,5.1c-0.2,0.3-0.5,0.5-0.8,0.8c-0.3,0.3-0.7,0.6-1.1,0.9l0,0
		l0,0l0,0c-1.8,1.2-4,2.1-6.7,2.8c-3.1,0.7-6.9,1.1-11.4,1.1c-6.6,0-12.4-0.9-17.5-2.6c-4.9-1.7-9.2-4.3-13-7.6v0
		c-3.8-3.5-7-7.7-9.4-12.6c-2.6-5.3-4.4-11.5-5.6-18.6l0-0.2c3.1,1.9,6.6,3.7,10.3,5.4c2,0.9,4,1.7,6,2.5c1.9,0.7,4,1.5,6.3,2.2v0
		L72.9,301.1z M80.2,222.7c-0.1-0.3-0.2-0.8-0.2-1.4h0v0c0-0.9,0.2-1.6,0.7-2.2c0.3-0.4,0.4-0.5,0.4-0.5c0.1-0.1,0.3-0.2,0.7-0.6
		l0,0c0.8-0.6,1.8-1.1,3-1.5c0.4-0.1,0.6-0.2,0.8-0.3c1.8-0.5,3.8-0.8,6.2-0.8v0h0c3.3,0,6.5,0.5,9.6,1.6c3.3,1.2,6.5,2.9,9.6,5.2v0
		c3.4,2.5,6.5,5.5,9.3,9.1c1.9,2.4,3.7,5,5.5,7.9c-3.3-1.2-6.9-2.5-10.7-3.7l-0.1,0l-21-6.5l0,0c-3.9-1.2-7.1-2.5-9.6-3.6
		c-1.8-0.9-3-1.6-3.6-2.1l-0.1-0.1C80.4,223.1,80.3,222.9,80.2,222.7C80.1,222.4,80.3,223,80.2,222.7z M974.2,341.2
		c-2-3.3-2.9-9.9-2.9-19.8v-16.7c2-0.7,4-1.6,5.9-2.5c1.9-0.9,3.6-1.8,5.1-2.7v22.8c0,4.5,0.2,8,0.6,10.7c0,0,0,0.1,0,0.1
		c-1,3.4-1.6,6.8-1.2,8.9c-0.4,1.5-0.7,3-0.8,4.3C977.8,345.2,975.5,343.5,974.2,341.2z M1162.3,276.1c3.1-0.6,6.4-1.5,9.3-2.6v20.1
		c-2.6-0.1-5.4-0.1-8-0.1c-1.4,0-2.8,0-4.1,0v-17C1160.4,276.5,1161.3,276.3,1162.3,276.1z M493.3,336
		C493.3,336,493.3,336,493.3,336L493.3,336c-0.2-0.3-0.4-1.4-0.7-3.1c-0.4-2.7-0.6-6.3-0.6-10.7v-51.8c0-13.2-1.5-23.7-4.6-31.5
		c-0.7-1.7-1.4-3.3-2.3-4.9c-0.9-1.7-1.9-3.1-3-4.5l0,0v0c-3.2-4-7.4-7.1-12.4-9.3c-0.9-0.4-1.8-0.8-2.8-1.1
		c-5.5-1.9-11.9-2.9-19.4-2.9v0h0c-5.6,0-11.2,0.6-16.6,1.8c-5.4,1.2-10.5,3-15.3,5.3c-2,1-4,2.1-6,3.3v-48.8v-13.2l-13.1,1.8
		l-56.1,7.8l-10,1.4v10v6.5v9.9l9.7,1.5c0.3,2.1,0.4,4.7,0.4,7.9h0v0h0v116.2h0c0,4-0.2,7-0.7,8.9c-0.2,0-0.4,0-0.7,0.1l-10.7,0.8
		v10.7v6.2v11.5H340h68.3h4h7.6h4h70.5h11.5v-11.5v-6.2v-9.8l-9.8-1.5C494.8,336.6,493.9,336.4,493.3,336z M418.1,336.8l-2.2,0.3
		l-1.2-0.3c-1.7-0.3-2.8-0.8-3.3-1.3c0,0-0.1-0.1-0.1-0.1c0-0.1,0,0,0-0.1l0,0l0,0l0,0c-0.1-0.4-0.3-1.3-0.6-2.6
		c-0.1-0.7-0.2-1.2-0.2-1.3c-0.4-3.2-0.7-7.4-0.7-12.3h0v0v-23c0-6.1,0.4-11.4,1.3-15.8c0.8-4,1.9-7.2,3.3-9.7
		c1.1-1.9,2.2-3.2,3.4-4c1-0.6,2.3-0.9,3.9-0.9c0.1,0,0.1,0,0.1,0c0.2,0.6,0.3,1.4,0.5,2.4c0.4,2.2,0.5,5.1,0.5,8.8v47.8h0
		c0,3.5-0.2,6.3-0.6,8.5c-0.2,1.3-0.5,2.2-0.8,2.6c0,0-0.1,0.1-0.2,0.1C420.4,336.3,419.4,336.6,418.1,336.8z M494.8,353.6h-74.5
		v-6.2c5.4-0.8,9.1-2.9,11.3-6.2c2.1-3.3,3.2-9.1,3.2-17.4V276c0-8.4-1-14.3-2.9-17.6c-1.9-3.4-5.2-5.1-9.8-5.1
		c-7.5,0-13.3,3.6-17.3,10.8c-4,7.2-6,17.6-6,31.2v23c0,11.1,1,18.5,3,22c2,3.5,5.7,5.9,11,7v6.2h-72.3v-6.2
		c4.5-0.3,7.7-1.8,9.5-4.6c1.8-2.7,2.6-8,2.6-15.9V210.6c0-8.1-0.7-13.2-2.1-15.3c-1.4-2.1-4-3.5-7.9-4v-6.5l56.1-7.8v74.2
		c7.1-8.4,14.6-14.5,22.6-18.5c8-4,16.9-5.9,26.8-5.9c12.2,0,20.8,3,25.6,9.1c4.9,6.1,7.3,17.3,7.3,33.7v51.8c0,9.9,1,16.5,2.9,19.8
		c2,3.3,5.6,5.3,10.9,6.2V353.6z M336.6,305l-12.2-3.2l-6.5-1.7l-9.5-2.5l-4,9c-2.1,4.9-4.7,8.8-7.5,11.8v0
		c-0.4,0.4-0.9,0.9-1.6,1.5c-0.5,0.4-1,0.8-1.6,1.3l0,0c0,0-0.1,0.1-0.1,0.1l-0.1,0.1l0,0l0,0c-1.6,1.1-3.2,2-4.8,2.6
		c-0.1,0-0.4,0.1-1.1,0.3c-2.4,0.7-4.9,1.1-7.6,1.1v0h0c-6.3,0-11.5-1.5-15.6-4.5c-0.9-0.6-1.6-1.3-2.3-1.9
		c-0.8-0.8-1.6-1.6-2.2-2.3l0,0v0c-2.2-2.6-4-5.7-5.3-9.1c-0.3-0.8-0.5-1.5-0.7-2.1c-1.5-4.8-2.2-10.3-2.2-16.4h0v0
		c0-8,1.2-14.7,3.6-19.9c0.4-0.9,0.9-1.8,1.4-2.7c0.6-1,1.1-1.8,1.6-2.4l0,0l0,0c1.5-2,3.3-3.6,5.2-4.8c0.6-0.3,0.9-0.6,1.1-0.6
		c2.4-1.2,5.3-1.8,8.5-1.8v0h0c2.4,0,4.5,0.4,6.4,1.1c1.9,0.7,3.7,1.8,5.3,3.2l0,0c1.7,1.5,3.2,3.4,4.6,5.7c1.5,2.6,2.7,5.5,3.7,8.9
		l2.7,9.5l9.7-1.1l6.5-0.8l12.9-1.5l-3-12.6l-11-45.8l-2.8-11.6l-11.4,3.1c-1.5,0.4-2.9,0.8-4.2,1c-1,0.2-2.1,0.4-3.3,0.6l-0.2,0
		c-0.8,0.1-1.7,0.2-2.9,0.3c-0.9,0.1-1.7,0.1-2.6,0.1c-2.2,0-5.2-0.2-9.1-0.5c-3-0.3-1-0.1-2.4-0.2c-0.2,0-1.1-0.1-2.7-0.3l0,0
		c-3-0.3-5.1-0.5-6.5-0.6c-0.5,0-1.5-0.1-2.8-0.2c-2.6-0.2-5-0.3-7.2-0.3v0h0c-15.5,0-29.1,3.6-40.7,10.6c-2.3,1.4-4.5,3-6.6,4.6
		c-2,1.6-4,3.4-6,5.4h0l0,0l0,0c-5.8,5.7-10.3,12.2-13.7,19.5c-0.7,1.5-1.3,2.9-1.8,4.3c-3.4,8.7-5.1,18.4-5.1,29h0v0
		c0,6.4,0.8,12.6,2.4,18.8c1.5,6,3.9,12,7,18c3.1,5.9,6.8,11.3,11,16.2c4.1,4.8,8.9,9.2,14.2,13.1l0,0c3.6,2.8,7.4,5.1,11.5,7.1
		c4,1.9,8.3,3.5,12.8,4.7l0,0c3.5,0.9,7.6,1.7,12,2.3c1.4,0.2,2.2,0.3,2.5,0.3c5,0.5,10.5,0.8,16.6,0.8v0h0c2.6,0,5.7-0.1,9.1-0.3
		c3.3-0.2,6.5-0.5,9.8-0.8c3.3-0.4,5.4-0.6,6.4-0.7c1-0.1,0.5-0.1,0.9-0.1c1.5-0.1,2.3-0.2,2.4-0.2v0h0c0.3,0,0.6,0,1,0
		c0.3,0-0.2,0,0.4,0c1.5,0.1,0.5,0,0,0l0,0l0.4,0l0,0c0.5,0,1.1,0.1,3,0.3c0.2,0-0.5-0.1,2.4,0.3l0,0l8.9,0.9l3.1-8.4l16-43.7
		L336.6,305z M306,355.8c-2.4-0.3-4.2-0.5-5.5-0.6c-1.4-0.1-2.3-0.2-2.9-0.2c-1,0-4.6,0.3-10.9,1c-6.3,0.7-12.2,1-17.7,1
		c-11.1,0-20.5-1-28.2-3c-7.7-2-14.4-5.3-20.3-9.8c-9.4-6.8-16.7-15.3-22-25.5c-5.3-10.2-8-20.7-8-31.5c0-18.2,5.8-33.1,17.3-44.6
		c11.5-11.5,26.6-17.2,45.3-17.2c3.4,0,8.5,0.3,15.4,1c6.8,0.7,12,1,15.4,1c2.3,0,4.7-0.2,7.3-0.6c2.6-0.4,5.5-1,8.9-2l11,45.8
		l-6.5,0.7c-2.5-8.7-6.4-15.4-11.8-20.2c-5.4-4.7-11.8-7.1-19.2-7.1c-10.1,0-18.1,3.9-24,11.8c-6,7.8-8.9,18.5-8.9,31.9
		c0,14.7,3.6,26.4,10.9,35.1c7.2,8.7,16.9,13,29.1,13c7.9,0,14.8-2.2,20.6-6.5c5.8-4.3,10.7-10.8,14.4-19.3l6.5,1.7L306,355.8z
		 M985,351.5v2h-74.5v-6.2c5.4-0.8,9.1-2.9,11.3-6.2c2.1-3.3,3.2-9.1,3.2-17.4V276c0-8.4-1-14.3-2.9-17.6c-1.9-3.4-5.2-5.1-9.8-5.1
		c-7.5,0-13.3,3.6-17.3,10.8c-4,7.2-6,17.6-6,31.2v23c0,11.1,1,18.5,3,22c2,3.5,5.7,5.9,11,7v6.2h-72.3v-6.2
		c4.5-0.3,7.7-1.8,9.5-4.6c1.8-2.7,2.6-8,2.6-15.9V210.6c0-8.1-0.7-13.2-2.1-15.3c-1.4-2.1-4-3.5-7.9-4v-6.5l56.1-7.8v74.2
		c7.1-8.4,14.6-14.5,22.6-18.5c8-4,16.9-5.9,26.8-5.9c12.2,0,20.8,3,25.6,9.1c4.9,6.1,7.3,17.3,7.3,33.7v14c2.2-2.2,4.6-4,7.2-4.7
		c1.3-0.3,2.5-0.4,3.7-0.2v-8.4c0-2.5-0.1-4.9-0.2-7.2c-0.7-0.1-1.4-0.2-2.1-0.4c-2.8-0.5-5.5-0.9-7.9-1.3l-0.1,0l0-0.1
		c0.1-0.7,0.6-3.8,1.8-7.1c-0.3,0-0.6-0.1-0.9-0.1l-0.1,0l0-0.1c0.2-1.1,1.5-9.7,5.5-13.5c-0.2-0.6-0.4-1.2-0.7-1.8
		c-0.7-1.7-1.4-3.3-2.3-4.9c-0.9-1.7-1.9-3.1-3-4.5l0,0v0c-3.2-4-7.4-7.1-12.4-9.3c-0.9-0.4-1.8-0.8-2.8-1.1
		c-5.5-1.9-11.9-2.9-19.4-2.9v0h0c-5.6,0-11.2,0.6-16.6,1.8c-5.4,1.2-10.5,3-15.3,5.3c-2,1-4,2.1-6,3.3v-48.8v-13.2l-13.1,1.8
		l-56.1,7.8l-10,1.4v10v6.5v9.9l9.7,1.5c0.3,2.1,0.4,4.7,0.4,7.9h0v0h0v116.2h0c0,4-0.2,7-0.7,8.9c-0.2,0-0.4,0-0.7,0.1l-10.7,0.8
		v10.7v6.2v11.5h11.5h68.3h4h7.6h4h70.5H996v-11.5v-6.2V344c-2.1,2.1-4.6,4-7.3,5.7C987.3,350.6,986.1,351.2,985,351.5z
		 M908.3,336.8l-2.2,0.3l-1.2-0.3c-1.7-0.3-2.8-0.8-3.3-1.3c0,0-0.1-0.1-0.1-0.1c0-0.1,0,0,0-0.1l0,0l0,0l0,0
		c-0.1-0.4-0.3-1.3-0.6-2.6c-0.1-0.7-0.2-1.2-0.2-1.3c-0.4-3.2-0.7-7.4-0.7-12.3h0v0v-23c0-6.1,0.4-11.4,1.3-15.8
		c0.8-4,1.9-7.2,3.3-9.7c1.1-1.9,2.2-3.2,3.4-4c1-0.6,2.3-0.9,3.9-0.9c0.1,0,0.1,0,0.1,0c0.2,0.6,0.3,1.4,0.5,2.4
		c0.4,2.2,0.5,5.1,0.5,8.8v47.8h0c0,3.5-0.2,6.3-0.6,8.5c-0.2,1.3-0.5,2.2-0.8,2.6c0,0-0.1,0.1-0.2,0.1
		C910.6,336.3,909.6,336.6,908.3,336.8z M1400.7,305.7l-6-1.8l-9.8-3l-4.1,9.4c-1.3,3-2.7,5.5-4.1,7.6c-1.2,1.9-2.5,3.4-3.9,4.6v0
		c-1,0.9-2,1.6-3,2c-0.7,0.3-1.5,0.5-2.2,0.5c-0.4,0-0.8,0-1.1-0.1c-0.1-0.3-0.2-0.7-0.3-1.2c-0.1-0.4,0,0.1-0.1-0.9
		c-0.4-2.4-0.6-5.3-0.6-8.7h0v0v-54.2h4.2v0c1.8,0,3.1,0,3.8,0.1c0.9,0,1.5,0.1,2,0.2c0.5,0.1,0.8,0.2,1.1,0.2
		c0.1,0,0.3,0.1,0.7,0.3l12.2,5.9l3.9-13l6.5-21.5l8.1-26.9l-24.6,13.5c-0.7,0.4-1.5,0.8-2.2,1c-0.5,0.2-1.1,0.4-1.7,0.5l-0.2,0
		c-1.2,0.3-2.9,0.5-5.3,0.5h-9v-36.8v-16.4l-15.4,5.6l-42.2,15.3l-8.8,3.2l1.3,9.2c0.2,1.1,0.2,1.7,0.3,2.2l0,0c0-0.1,0-0.2,0-0.3
		c0,0.1,0,0.2,0,0.3c0.3,2.1,0.5,3.8,0.7,5.2l0,0c0,0.4,0.1,0.8,0.1,1.3c0.1,0.8,0,0.2,0.1,0.5c0,0.8,0.1,1.2,0.1,1.4h0v0
		c0,2.8-0.3,5.4-1,7.7c-0.7,2.2-1.7,4.3-3,6.3c-1.2,1.7-2.3,2.9-3.3,3.6c-0.5,0.3-0.9,0.5-1.3,0.5l-11.1,0.4v11.1v7.5v11.5h11.5h3
		v58.4c0,8,1,15.1,2.9,21.4c2.1,6.8,5.4,12.5,9.8,17.1c4.5,4.6,10,8,16.8,10.2c6.1,2,13.1,3,21,3c2.5,0,5.4-0.2,8.7-0.5
		c3.1-0.3,6.1-0.7,9.2-1.2h0.1c4.1-0.7,9-1.7,14.7-3.1c3.2-0.8,2.2-0.5,3.2-0.8c0.4-0.1,0.7-0.2,3.3-0.9l0,0l5.6-1.5l2.2-5.3
		L1408,321l4.7-11.6L1400.7,305.7z M1383.4,351.6c-7.7,2-14.4,3.5-20.2,4.5c-5.8,1-11.2,1.5-16,1.5c-13.5,0-23.3-3.2-29.6-9.6
		c-6.3-6.5-9.4-16.6-9.4-30.4v-70h-14.5v-7.5c5.1-0.2,9.7-3.2,13.8-9.1c4-5.9,6-12.7,6-20.5c0-1.2-0.1-2.7-0.3-4.5
		c-0.2-1.8-0.6-4.3-1-7.6l42.2-15.3v48.3h20.5c3.4,0,6.1-0.3,8.3-0.9c2.2-0.5,4.3-1.5,6.5-2.7l-6.5,21.5c-1.5-0.8-3.2-1.3-5-1.5
		c-1.8-0.3-4.4-0.4-7.7-0.4h-15.8v65.7c0,8.4,1,14.3,3.1,17.5c2.1,3.3,5.6,4.9,10.5,4.9c4.6,0,8.9-1.8,12.9-5.5
		c4-3.7,7.6-9,10.7-16.1l6,1.8L1383.4,351.6z M1269,217.3l12.4,2.1l-3.2,12.2l-9,34.5l-3.7,14l-12.8-6.7c-2-1.1-3.7-1.9-5-2.5
		c-1.5-0.6-2.8-1.2-4-1.5h-0.1c-1.1-0.4-2-0.6-2.9-0.8c-0.8-0.1-1.5-0.2-2.1-0.2c-2.2,0-3.8,0.3-4.9,0.8c-0.7,0.4-1.3,1-1.8,1.8l0,0
		c-0.9,1.6-1.6,4.6-2.2,8.9c-0.7,5.3-1.1,12.2-1.1,21v18.2c0,5.3,0.2,9.4,0.6,12.5c0.3,2.1,0.6,3.4,0.8,3.8l0,0c0,0,0,0.1,0.1,0.1
		c0,0.1,0.1,0.1,0.1,0.1c0.6,0.5,1.7,1,3.4,1.3l9.1,1.9v9.3v6.2v11.5h-11.5H1159h-11.5v-11.5v-6.2v-10.3l10.3-1.2l0,0
		c0.4,0,0.7-0.1,0.9-0.1c0.1,0,0.3,0,0.4-0.1c0-0.1,0-0.3,0-0.5c0.4-2.1,0.5-4.9,0.5-8.4h0v-12.3c3-0.2,7.5-0.7,12.1-2.1v13.6
		c0,8.3-0.9,13.7-2.7,16.1c-1.8,2.4-5,3.9-9.4,4.4v6.2h72.3v-6.2c-5.3-1.1-9-3.5-11-6.9c-2-3.5-3-10.8-3-22.1v-18.2
		c0-18.1,1.6-29.9,4.8-35.6c3.2-5.7,8.7-8.5,16.6-8.5c2.6,0,5.5,0.5,8.6,1.5c3.1,1,6.7,2.6,10.8,4.7l9-34.5l-0.8-0.1
		c-4.8-0.5-8.2-0.8-10.3-0.8c-7.3,0-14,2-20.4,6c-6.4,4-12.5,10.2-18.5,18.5c-0.5-4.8-1.2-9-2.1-12.7c-1-3.8-2.1-7.1-3.6-10
		l-53.7,3.5l0.1,6.2c5,0.6,8.4,2.3,10.3,5.1c1.1,1.6,1.9,4.1,2.3,7.3c-4.1,1.4-8.2,3.2-11.7,5c-0.1-1.2-0.2-2.3-0.4-3.3
		c-0.1-0.6-0.1-0.6-0.1-0.7c-0.1-0.3-0.1-0.5-0.2-0.7c-0.5-0.2-1.2-0.3-2.1-0.4l-10-1.2l-0.2-10l-0.1-6.2l-0.1-3.1
		c3.4-2.1,7.1-4.6,11.1-7.5l0,0c0.6-0.4,1.1-0.9,1.6-1.3l51.8-3.4l7.5-0.5l3.5,6.7c0.7,1.3,1.3,2.6,1.9,4.1c2-1.6,4-3.1,6-4.3l0,0
		l0,0c1.1-0.7,2.2-1.3,3.4-2c1-0.5,2.2-1.1,3.6-1.7c6.3-2.7,12.8-4.1,19.5-4.1c1.3,0,3,0.1,5,0.3l0,0c1.6,0.1,3.8,0.4,6.5,0.7
		l0.6,0.1L1269,217.3z M826.8,305l-12.2-3.2l-6.5-1.7l-9.5-2.5l-4,9c-2.1,4.9-4.7,8.8-7.5,11.8c-0.6,0.6-1.1,1.1-1.6,1.6
		c-0.5,0.4-1,0.8-1.6,1.3l0,0c0,0-0.1,0.1-0.1,0.1l-0.1,0.1l0,0l0,0c-1.6,1.1-3.2,2-4.8,2.6c-0.1,0-0.4,0.1-1.1,0.3
		c-2.4,0.7-4.9,1.1-7.6,1.1v0h0c-6.3,0-11.5-1.5-15.6-4.5c-0.8-0.6-1.6-1.3-2.3-1.9c-0.8-0.8-1.6-1.6-2.2-2.3l0,0v0
		c-2.2-2.6-4-5.7-5.3-9.1c-0.3-0.8-0.5-1.5-0.7-2.1c-1.5-4.8-2.2-10.3-2.2-16.4h0v0c0-8,1.2-14.7,3.6-19.9c0.4-0.9,0.9-1.8,1.4-2.7
		c0.6-1,1.1-1.8,1.6-2.4l0,0l0,0c1.5-2,3.3-3.6,5.2-4.8c0.6-0.3,0.9-0.6,1.1-0.6c2.4-1.2,5.3-1.8,8.5-1.8v0h0c2.4,0,4.5,0.4,6.4,1.1
		c1.9,0.7,3.7,1.8,5.3,3.2l0,0c1.7,1.5,3.2,3.4,4.6,5.7c1.5,2.6,2.7,5.5,3.7,8.9l2.7,9.5l9.7-1.1l6.5-0.8l12.9-1.5l-3-12.6l-11-45.8
		l-2.8-11.6l-11.4,3.1c-1.5,0.4-2.9,0.8-4.2,1c-1,0.2-2.1,0.4-3.3,0.6l-0.2,0c-0.8,0.1-1.7,0.2-2.9,0.3c-0.9,0.1-1.7,0.1-2.6,0.1
		c-2.2,0-5.2-0.2-9.1-0.5c-3-0.3-1-0.1-2.4-0.2c-0.2,0-1.1-0.1-2.7-0.3l0,0c-3.3-0.3-6-0.6-8-0.7c-0.2,0-0.6,0-1.3-0.1
		c-2.6-0.2-5-0.3-7.2-0.3v0h0c-15.5,0-29.1,3.6-40.7,10.6c-2.3,1.4-4.5,3-6.6,4.6c-2,1.6-4,3.4-6,5.4h0l0,0l0,0
		c-5.8,5.7-10.3,12.2-13.7,19.5c-0.7,1.5-1.3,2.9-1.8,4.3c-3.4,8.7-5.1,18.4-5.1,29h0v0c0,6.4,0.8,12.6,2.4,18.8c1.5,6,3.9,12,7,18
		c3.1,5.9,6.8,11.3,11,16.2c4.1,4.8,8.9,9.2,14.2,13.1l0,0c3.6,2.8,7.4,5.1,11.5,7.1c4,1.9,8.3,3.5,12.8,4.7l0,0
		c3.5,0.9,7.6,1.7,12,2.3c1.4,0.2,2.2,0.3,2.5,0.3c5,0.5,10.5,0.8,16.6,0.8v0h0c2.6,0,5.7-0.1,9.1-0.3c3.3-0.2,6.5-0.5,9.8-0.8
		c3.3-0.4,5.4-0.6,6.4-0.7c1-0.1,0.5-0.1,0.9-0.1c1.5-0.1,2.3-0.2,2.4-0.2v0h0c0.3,0,0.6,0,1,0c0.3,0-0.2,0,0.4,0c1.5,0.1,0.5,0,0,0
		l0,0l0.4,0l0,0c0.5,0,1.1,0.1,3,0.3c0.2,0-0.5-0.1,2.4,0.3l0,0l8.9,0.9l3.1-8.4l16-43.7L826.8,305z M796.2,355.8
		c-2.4-0.3-4.2-0.5-5.5-0.6c-1.4-0.1-2.3-0.2-2.9-0.2c-1,0-4.6,0.3-10.9,1c-6.3,0.7-12.2,1-17.7,1c-11.1,0-20.5-1-28.2-3
		c-7.7-2-14.4-5.3-20.3-9.8c-9.4-6.8-16.7-15.3-22-25.5c-5.3-10.2-8-20.7-8-31.5c0-18.2,5.8-33.1,17.3-44.6
		c11.5-11.5,26.6-17.2,45.3-17.2c3.4,0,8.5,0.3,15.4,1c6.8,0.7,12,1,15.4,1c2.3,0,4.7-0.2,7.3-0.6c2.6-0.4,5.5-1,8.9-2l11,45.8
		l-6.5,0.7c-2.5-8.7-6.4-15.4-11.8-20.2c-5.4-4.7-11.8-7.1-19.2-7.1c-10.1,0-18.1,3.9-24,11.8c-6,7.8-8.9,18.5-8.9,31.9
		c0,14.7,3.6,26.4,10.9,35.1c7.2,8.7,16.9,13,29.1,13c7.9,0,14.8-2.2,20.6-6.5c5.8-4.3,10.7-10.8,14.4-19.3l6.5,1.7L796.2,355.8z
		 M663.4,335.6c0-0.2-0.1-0.5-0.2-1.3c-0.3-1.8-0.5-4.5-0.5-8v-97.1v-12.2l-12.2,0.7l-59.7,3.5l-7.9,0.5v27.7l7.1,0.9
		c1.1,0.1,2,0.4,2.7,0.7c0,0.2,0.1,0.6,0.2,1.2c0.3,1.9,0.5,4.5,0.5,8v30.3c0,6.1-0.4,11.3-1.2,15.7c-0.8,4-1.8,7.2-3.2,9.6
		c-1,1.7-2.1,3-3.3,3.7c-1,0.6-2.3,0.9-4,0.9c-0.1,0-0.1,0-0.2,0c-0.2-0.6-0.4-1.3-0.6-2.3c-0.4-2.1-0.6-4.7-0.6-7.9h0v-61.2h0V222
		h0v-4.9l-12.2,0.7l-59.4,3.5l-10.9,0.6v10.8v6.2v10.2l10.2,1.2c1,0.1,1.8,0.3,2.3,0.5c0.1,0.3,0.1,0.7,0.2,1.2
		c0.3,1.9,0.5,4.6,0.5,8.1v54.7c0,13.1,1.6,23.6,4.7,31.5c0.8,1.9,1.5,3.5,2.3,4.9c0.9,1.6,1.9,3.1,3,4.5l0,0l0,0.1
		c3.2,4,7.3,7.1,12.3,9.3c0.8,0.4,1.7,0.7,2.8,1.1c5.5,2,11.9,3,19.3,3v0h0c5.5,0,10.9-0.6,16-1.7c5.2-1.1,10.1-2.8,15-5.1
		c3.7-1.7,7.3-3.9,11-6.4c0.2,0.5,0.4,1,0.7,1.5c0.1,0.3,0.4,0.8,0.7,1.6l0,0l3.1,6.5h7.2h55.1H676v-11.5v-7v-10.1l-10-1.3
		C664.4,335.8,663.5,335.7,663.4,335.6z M665,353.6h-55.1c-1.4-2.8-2.4-5.9-3.2-9c-0.7-3.2-1.2-6.7-1.3-10.6
		c-7.5,8-15.2,13.8-23.1,17.6c-8,3.8-16.6,5.6-26.1,5.6c-12,0-20.5-3.1-25.5-9.2c-5-6.2-7.5-17.4-7.5-33.6v-54.7
		c0-8.1-1-13.5-2.9-16.3c-2-2.8-5.4-4.4-10.4-5v-6.2l59.4-3.5v81.1c0,7.7,1,13.2,3,16.6c2,3.4,5.3,5.1,9.8,5.1
		c7.6,0,13.3-3.5,17.3-10.6c4-7.1,5.9-17.4,5.9-30.9v-30.3c0-8-1-13.4-2.9-16.1c-2-2.8-5.5-4.5-10.5-5.1v-6.2l59.7-3.5v97.1
		c0,8,1,13.3,2.9,16c2,2.7,5.4,4.3,10.4,5V353.6z"/>
	<path class="st3" d="M494.8,347.4v6.2h-74.5v-6.2c5.4-0.8,9.1-2.9,11.3-6.2c2.1-3.3,3.2-9.1,3.2-17.4V276c0-8.4-1-14.3-2.9-17.6
		c-1.9-3.4-5.2-5.1-9.8-5.1c-7.5,0-13.3,3.6-17.3,10.8c-4,7.2-6,17.6-6,31.2v23c0,11.1,1,18.5,3,22c2,3.5,5.7,5.9,11,7v6.2h-72.3
		v-6.2c4.5-0.3,7.7-1.8,9.5-4.6c1.8-2.7,2.6-8,2.6-15.9V210.6c0-8.1-0.7-13.2-2.1-15.3c-1.4-2.1-4-3.5-7.9-4v-6.5l56.1-7.8v74.2
		c7.1-8.4,14.6-14.5,22.6-18.5c8-4,16.9-5.9,26.8-5.9c12.2,0,20.8,3,25.6,9.1c4.9,6.1,7.3,17.3,7.3,33.7v51.8c0,9.9,1,16.5,2.9,19.8
		C485.9,344.5,489.6,346.5,494.8,347.4z M301.1,329.6c-5.9,4.3-12.8,6.5-20.6,6.5c-12.1,0-21.8-4.3-29.1-13
		c-7.3-8.7-10.9-20.4-10.9-35.1c0-13.4,3-24.1,8.9-31.9c5.9-7.9,14-11.8,24-11.8c7.4,0,13.8,2.4,19.2,7.1
		c5.4,4.8,9.3,11.5,11.8,20.2l6.5-0.7L300,225c-3.3,0.9-6.3,1.6-8.9,2c-2.6,0.4-5,0.6-7.3,0.6c-3.4,0-8.5-0.3-15.4-1
		c-6.8-0.7-12-1-15.4-1c-18.6,0-33.7,5.8-45.3,17.2c-11.5,11.5-17.3,26.3-17.3,44.6c0,10.8,2.7,21.3,8,31.5
		c5.3,10.2,12.7,18.7,22,25.5c5.8,4.5,12.6,7.8,20.3,9.8c7.6,2,17,3,28.2,3c5.5,0,11.3-0.3,17.7-1c6.3-0.7,9.9-1,10.9-1
		c0.5,0,1.5,0,2.9,0.2c1.3,0.1,3.2,0.3,5.5,0.6l16-43.7l-6.5-1.7C311.8,318.9,306.9,325.3,301.1,329.6z M654.6,341.6
		c-2-2.7-2.9-8-2.9-16v-97.1l-59.7,3.5v6.2c5,0.7,8.5,2.4,10.5,5.1c2,2.8,2.9,8.1,2.9,16.1v30.3c0,13.5-2,23.8-5.9,30.9
		c-4,7.1-9.7,10.6-17.3,10.6c-4.5,0-7.8-1.7-9.8-5.1c-2-3.4-3-9-3-16.6v-81.1l-59.4,3.5v6.2c5,0.6,8.4,2.3,10.4,5
		c2,2.8,2.9,8.2,2.9,16.3v54.7c0,16.3,2.5,27.5,7.5,33.6c5,6.1,13.5,9.2,25.5,9.2c9.5,0,18.1-1.9,26.1-5.6
		c7.9-3.8,15.6-9.6,23.1-17.6c0.2,3.9,0.6,7.5,1.3,10.6c0.8,3.2,1.8,6.2,3.2,9H665v-7C660,345.9,656.6,344.3,654.6,341.6z
		 M112.2,245.7l-21-6.5c-8.9-2.8-14.8-5.6-17.7-8.3c-3-2.7-4.4-6.2-4.4-10.5c0-5,2.2-9.2,6.5-12.5c4.3-3.3,10-5,16.9-5
		c9.2,0,17.9,3.1,26,9.2c8.2,6.1,15.2,14.8,21,26l7-1l-5.3-53c-2.5,1.4-4.7,2.4-6.6,3c-1.9,0.6-3.6,0.9-5.1,0.9
		c-4.1,0-11.7-0.8-22.9-2.5c-11.2-1.7-20.3-2.5-27.4-2.5c-19.5,0-35,4.7-46.4,14.2c-11.4,9.4-17.1,22-17.1,37.8
		c0,11.8,3.3,21.5,10,29.1c6.7,7.6,17.2,13.7,31.5,18.4l20,6.6c1.1,0.3,2.7,0.8,4.8,1.5c18.5,5.9,27.7,13.8,27.7,23.8
		c0,7-2.9,12.5-8.7,16.3c-5.8,3.9-14,5.9-24.5,5.9c-15.6,0-28.3-4.4-38.1-13.3c-9.8-8.9-16-21.5-18.6-38l-6.8,0.2l4.3,70.6
		c2.8-2,5.3-3.3,7.4-4.1c2.1-0.8,4.3-1.2,6.6-1.2c2,0,8.7,1,20.2,3c11.5,2,22.1,3,31.8,3c24.2,0,43.6-5.6,58.3-16.8
		c14.6-11.2,22-25.9,22-44c0-12.6-3.5-22.6-10.5-29.9C145.8,259,132.2,252.2,112.2,245.7z M1256.6,226.8c-7.3,0-14,2-20.4,6
		c-6.4,4-12.5,10.2-18.5,18.5c-0.5-4.8-1.2-9-2.1-12.7c-1-3.8-2.1-7.1-3.6-10l-53.7,3.5l0.1,6.2c5,0.6,8.4,2.3,10.3,5.1
		c1.1,1.6,1.9,4.1,2.3,7.3c5.5-1.9,10.8-2.8,13.7-1.3c1.8,0.9,2.5,2.6,2.1,5.1c0.7,1.3,0.3,2.8-1.1,4.3c0.3,0.8,0.4,1.9,0.2,3.1
		c1,2.1-0.5,4.5-4.4,7c-2.6,1.6-6.2,3.3-10.1,4.6v20.1c4.5,0.2,8.4,1,10.3,3.1c1,1.1,1.3,2.5,1.1,4.2l0,0l0,0
		c-1.1,0.7-2.1,1.4-3.3,2c0.5,0.3,1,0.7,1.4,1.1c1,1.1,1.3,2.5,1.1,4.2l0,0l0,0c-3.3,2.3-6.9,3.8-10.5,4.9v13.6
		c0,8.3-0.9,13.7-2.7,16.1c-1.8,2.4-5,3.9-9.4,4.4v6.2h72.3v-6.2c-5.3-1.1-9-3.5-11-6.9c-2-3.5-3-10.8-3-22.1v-18.2
		c0-18.1,1.6-29.9,4.8-35.6c3.2-5.7,8.7-8.5,16.6-8.5c2.6,0,5.5,0.5,8.6,1.5c3.1,1,6.7,2.6,10.8,4.7l9-34.5l-0.8-0.1
		C1262.1,227.1,1258.7,226.8,1256.6,226.8z M791.3,329.6c-5.9,4.3-12.8,6.5-20.6,6.5c-12.1,0-21.8-4.3-29.1-13
		c-7.3-8.7-10.9-20.4-10.9-35.1c0-13.4,3-24.1,8.9-31.9c5.9-7.9,14-11.8,24-11.8c7.4,0,13.8,2.4,19.2,7.1
		c5.4,4.8,9.3,11.5,11.8,20.2l6.5-0.7l-11-45.8c-3.3,0.9-6.3,1.6-8.9,2c-2.6,0.4-5,0.6-7.3,0.6c-3.4,0-8.5-0.3-15.4-1
		c-6.8-0.7-12-1-15.4-1c-18.6,0-33.7,5.8-45.3,17.2c-11.5,11.5-17.3,26.3-17.3,44.6c0,10.8,2.7,21.3,8,31.5
		c5.3,10.2,12.7,18.7,22,25.5c5.8,4.5,12.6,7.8,20.3,9.8c7.6,2,17,3,28.2,3c5.5,0,11.3-0.3,17.7-1c6.3-0.7,9.9-1,10.9-1
		c0.5,0,1.5,0,2.9,0.2c1.3,0.1,3.2,0.3,5.5,0.6l16-43.7l-6.5-1.7C802,318.9,797.1,325.3,791.3,329.6z M1391.9,314
		c-3.1,7.1-6.7,12.5-10.7,16.1c-4,3.7-8.3,5.5-12.9,5.5c-5,0-8.5-1.6-10.5-4.9c-2.1-3.3-3.1-9.1-3.1-17.5v-65.7h15.8
		c3.3,0,5.9,0.1,7.7,0.4c1.8,0.3,3.5,0.8,5,1.5l6.5-21.5c-2.2,1.2-4.4,2.1-6.5,2.7c-2.2,0.6-4.9,0.9-8.3,0.9h-20.5v-48.3l-42.2,15.3
		c0.5,3.3,0.8,5.8,1,7.6c0.2,1.8,0.3,3.3,0.3,4.5c0,7.8-2,14.5-6,20.5c-4,5.9-8.6,8.9-13.8,9.1v7.5h14.5v70c0,13.8,3.1,24,9.4,30.4
		c6.3,6.4,16.1,9.6,29.6,9.6c4.9,0,10.2-0.5,16-1.5c5.8-1,12.5-2.5,20.2-4.5l14.5-35.8L1391.9,314z M981.7,351.3c-1-0.9-1.2-2.7-1-5
		c-3-1.1-5.2-2.8-6.6-5.1c-2-3.3-2.9-9.9-2.9-19.8v-16.7c-4.3,1.6-8.3,2.6-10.7,2.6l-0.1,0l0-0.1c0.1-0.4,1.4-3.7,3.7-7.6
		c-1.1,0.2-2,0.3-2.8,0.3l-0.1,0l0-0.1c0.1-0.6,4.1-10.1,10-16.1v-14c0-16.4-2.5-27.6-7.3-33.7c-4.9-6-13.4-9.1-25.6-9.1
		c-9.9,0-18.8,2-26.8,5.9c-8,4-15.5,10.1-22.6,18.5V177l-56.1,7.8v6.5c3.8,0.6,6.5,1.9,7.9,4c1.4,2.1,2.1,7.2,2.1,15.3v116.2
		c0,7.9-0.9,13.2-2.6,15.9c-1.8,2.8-4.9,4.3-9.5,4.6v6.2H903v-6.2c-5.4-1.1-9-3.5-11-7c-2-3.5-3-10.9-3-22v-23c0-13.6,2-24,6-31.2
		c4-7.2,9.8-10.8,17.3-10.8c4.6,0,7.9,1.7,9.8,5.1c1.9,3.4,2.9,9.3,2.9,17.6v47.8c0,8.3-1,14.1-3.2,17.4c-2.1,3.3-5.9,5.3-11.3,6.2
		v6.2H985v-2c-0.6,0.2-1.2,0.3-1.7,0.3C982.7,351.8,982.2,351.6,981.7,351.3z"/>
</g>
<g id="Busunternehmen">
	<path class="st2" d="M213.4,22.3c0-2-0.8-3.5-2.3-4.5c-1.5-1-3.8-1.5-6.9-1.5c-3.3,0-5.5,0.3-6.5,0.8c-1,0.6-1.5,1.8-1.5,3.8v15.2
		c6-2.1,10.3-4.3,13.1-6.5C212,27.3,213.4,24.9,213.4,22.3z M207.9,25.8L207.9,25.8L207.9,25.8L207.9,25.8L207.9,25.8
		c-0.3,0.2-0.5,0.5-0.8,0.7l0,0l0,0c-1.5,1.2-3.8,2.5-6.7,3.8v-9.4c0-0.2,0-0.3,0-0.5c0.1,0,0,0,0.4,0c1-0.1,2.2-0.2,3.6-0.2v0h0
		c1.8,0,3.2,0.2,4.2,0.5c0.1,0,0.2,0.1,0.4,0.2h0c0.1,0,0.2,0.1,0.2,0.1l0,0l0,0h0l0,0l0,0c0.2,0.1,0.3,0.2,0.3,0.4
		c0.1,0.2,0.2,0.5,0.2,0.9h0c0,1-0.4,1.9-1.2,2.8C208.4,25.3,208.2,25.5,207.9,25.8z M207.3,40.9c-1.2,0.6-2.5,1.1-4,1.7
		c-1.5,0.5-3.8,1.2-7,2v24.2c0,2,0.4,3.2,1.3,3.7c0.9,0.4,2.6,0.6,5.1,0.6c4.8,0,8.6-1.3,11.3-4c2.7-2.6,4.1-6.2,4.1-10.8
		c0-3.5-0.9-6.8-2.7-9.7C213.6,45.6,210.9,43.1,207.3,40.9z M214.4,58.2L214.4,58.2c0,1.8-0.3,3.4-0.8,4.8c-0.5,1.3-1.2,2.3-2.1,3.2
		c-1,0.9-2.1,1.6-3.5,2.1c-1.5,0.5-3.2,0.8-5.2,0.8c-1,0-1.8,0-2.5-0.1l0-0.3V47.5c0.5-0.1,0.9-0.3,1.3-0.4c1.1-0.3,2.1-0.6,3-0.9
		l0.1,0c0.7-0.3,1.5-0.5,2.3-0.9l0,0c1.5,1.1,2.7,2.2,3.8,3.4c0.3,0.3,0.5,0.6,0.7,0.9l0,0c0.2,0.3,0.4,0.6,0.6,0.9l0,0
		c0.6,1,1.1,2,1.4,3c0.1,0.3,0.2,0.5,0.2,0.6l0,0C214.2,55.5,214.4,56.8,214.4,58.2L214.4,58.2z M967.2,84l3.9,0h1.1h29.9l3.9,0
		l0-3.9v-2.7v-3.4l-3.3-0.5c-0.7-0.1-1.2-0.2-1.5-0.4v0c-0.2-0.1-0.3-0.2-0.3-0.3v0c-0.1-0.2-0.2-0.6-0.3-1.2l0,0l-0.1-0.5
		c-0.2-1.3-0.3-2.9-0.3-4.8h0v0V44.1c0-5.5-0.6-9.8-1.8-13c-0.3-0.7-0.6-1.4-0.9-1.9c-0.3-0.6-0.7-1.2-1.1-1.7l0,0l0,0l0,0
		c-1.2-1.6-2.8-2.9-4.7-3.8c-0.4-0.2-0.7-0.3-1.1-0.5c-2.2-0.8-4.7-1.2-7.7-1.2v0h0c-2.2,0-4.3,0.2-6.4,0.7
		c-2.1,0.5-4.1,1.2-5.9,2.1l0,0c-1.9,0.9-3.7,2.1-5.5,3.5c-0.3,0.3-0.7,0.5-1,0.8c-1-1.6-2.2-2.9-3.6-4l0,0c-1.4-1.1-3.1-1.9-5-2.4
		c-1.8-0.5-3.7-0.7-5.9-0.7v0c-2.2,0-4.4,0.3-6.6,0.8c-2.1,0.5-4.2,1.3-6.1,2.3h0c-1.6,0.9-3.2,1.9-4.7,3.2
		c-0.1-0.3-0.2-0.6-0.3-0.9c-0.3-0.9-0.7-1.7-1-2.4l-1.2-2.3l-2.6,0.2l-23,1.5l-3.7,0.2l0.1,3.7l0,2.7l0.1,3.4l3.4,0.4
		c0.6,0.1,1.1,0.2,1.4,0.4c0.1,0,0.1,0.1,0.2,0.1c0.1,0.2,0.2,0.6,0.3,1.2v0c0.2,0.9,0.2,2.1,0.2,3.6v28.8c0,2.2-0.1,3.7-0.4,4.6
		l0,0c-0.1,0-0.2,0.1-0.4,0.1h0c-0.2,0-0.3,0.1-0.3,0.1c-0.2,0-0.3,0.1-0.5,0.1l0,0l-3.4,0.4l-0.1,3.4l0,2.7l-0.1,4h4h29h1.1h2.8
		h1.1L967.2,84L967.2,84z M970.5,73.6l-0.8,0.1l-0.6-0.1c-0.6-0.1-1-0.3-1.3-0.5c0,0-0.1-0.1-0.1-0.1c0,0,0-0.1-0.1-0.1l0,0
		c-0.1-0.2-0.2-0.7-0.3-1.5c0-0.2-0.1-0.4-0.1-0.6c-0.2-1.5-0.3-3.4-0.3-5.7h0V65v-9.8c0-3.8,0.3-6.9,1-9.3c0.1-0.5,0.3-0.9,0.4-1.2
		c0.2-0.4,0.3-0.8,0.4-1l0,0c0.8-1.7,1.8-2.5,3-2.5c0.2,0,0.1-0.1,0.2-0.1v0l0,0l0,0.1l0,0l0,0c0.2,0.3,0.3,0.9,0.4,1.8l0,0
		c0.2,1,0.2,2.4,0.2,4h0v20.5h0c0,2.2-0.2,3.9-0.5,4.9l0,0c0,0.1-0.1,0.3-0.1,0.4l-0.1,0.1l0,0l0,0c-0.1,0.1-0.2,0.2-0.3,0.3v0
		C971.5,73.3,971.1,73.5,970.5,73.6z M937.3,73.6l-0.8,0.1l-0.5-0.1c-0.7-0.1-1.1-0.3-1.4-0.6l-0.1-0.1c0,0,0-0.1-0.1-0.2l0-0.1l0,0
		l0,0c-0.1-0.3-0.2-0.7-0.3-1.5l-0.1-0.6v0c-0.2-1.5-0.3-3.3-0.3-5.5h0v0v-9.8c0-3.8,0.3-6.9,1-9.3c0.1-0.5,0.3-0.9,0.4-1.3
		c0.1-0.3,0.3-0.6,0.5-1l0,0c0.8-1.7,1.8-2.5,3-2.5c0.2,0,0.3,0,0.3,0l0,0l0,0l0.1,0.1v0c0.2,0.3,0.3,0.7,0.4,1.3l0,0l0.1,0.5
		c0.2,1.1,0.3,2.4,0.3,3.9h0v0h0v20.5h0c0,1.6-0.1,2.9-0.2,3.9c-0.1,0.7-0.3,1.2-0.4,1.5l0,0.1c-0.1,0.1-0.2,0.2-0.3,0.3
		C938.3,73.3,937.8,73.5,937.3,73.6z M938,80.1v-2.7c2-0.3,3.5-1.2,4.3-2.6c0.8-1.4,1.3-3.9,1.3-7.5V46.9c0-3.5-0.4-6-1.1-7.5
		c-0.8-1.5-2.1-2.2-3.8-2.2c-2.8,0-4.9,1.6-6.5,4.7c-1.5,3.1-2.3,7.6-2.3,13.3V65c0,4.9,0.4,8,1.2,9.5c0.8,1.5,2.2,2.5,4.2,2.9v2.7
		h-30.1l0-2.7c1.9-0.2,3.1-0.9,3.9-1.9c0.7-1,1.1-3.3,1.1-6.9V39.8c0-3.4-0.4-5.7-1.2-6.9c-0.8-1.2-2.3-1.9-4.4-2.2l0-2.7l23-1.5
		c0.6,1.3,1.2,2.7,1.6,4.3c0.4,1.6,0.7,3.4,0.9,5.4c2.7-3.5,5.7-6.1,9-7.9c3.3-1.7,6.9-2.6,10.8-2.6c3.6,0,6.5,0.8,8.6,2.4
		c2.1,1.6,3.6,4.1,4.6,7.6c3.1-3.5,6.3-6,9.6-7.6c3.2-1.6,6.7-2.4,10.6-2.4c4.9,0,8.4,1.3,10.4,3.9c2,2.6,3,7.4,3,14.4v22.2
		c0,4.3,0.4,7.2,1.2,8.5c0.8,1.4,2.3,2.2,4.6,2.6v2.7h-31.1v-2.7c2.1-0.3,3.5-1.2,4.3-2.6c0.8-1.4,1.2-3.9,1.2-7.5V46.9
		c0-3.6-0.4-6.1-1.1-7.6c-0.7-1.4-2-2.2-3.7-2.2c-2.8,0-4.9,1.6-6.5,4.7c-1.5,3.1-2.3,7.6-2.3,13.3V65c0,5,0.4,8.2,1.1,9.6
		c0.8,1.5,2.2,2.4,4.2,2.8v2.7H938z M1067.6,30.8l0.1,3.4l3.4,0.4c0.6,0.1,1.1,0.2,1.4,0.4c0.1,0.1,0.2,0.1,0.2,0.1
		c0.1,0.2,0.2,0.6,0.3,1.1c0.2,0.9,0.2,2.1,0.2,3.6v28.8c0,2.1-0.1,3.6-0.4,4.5c0,0.1,0,0.1-0.1,0.2c-0.2,0.1-0.5,0.2-1,0.2
		l-3.7,0.2v3.7v2.7V84h3.9h30.9h3.9v0h31.2h3.9v-3.9v-2.7v-3.4l-3.3-0.5c-0.7-0.1-1.2-0.3-1.5-0.4c-0.2-0.1-0.3-0.2-0.3-0.3l0,0
		c-0.2-0.3-0.3-0.8-0.4-1.8l0,0c-0.2-1.2-0.3-2.8-0.3-4.7V44.1c0-5.5-0.6-9.9-1.9-13.1c-0.3-0.7-0.6-1.3-0.9-2
		c-0.4-0.7-0.8-1.2-1.2-1.8l0,0l0,0v0c-1.3-1.6-2.9-2.8-4.9-3.7c-0.5-0.2-0.8-0.4-1.1-0.5c-2.2-0.8-4.9-1.2-8-1.2v0h0
		c-2.3,0-4.6,0.2-6.8,0.7c-2.2,0.5-4.3,1.2-6.3,2.2l0,0c-1.9,0.9-3.8,2.1-5.6,3.6c-0.1-0.4-0.3-0.8-0.4-1.2l0,0
		c-0.3-0.9-0.7-1.7-1.1-2.5l-1.2-2.3l-2.5,0.2l-23,1.5l-3.7,0.2l0.1,3.7L1067.6,30.8z M1104.4,73.7l-0.7-0.1
		c-0.9-0.2-1.5-0.4-1.9-0.8c-0.1-0.1-0.1-0.1-0.1-0.1l0,0c0-0.1-0.1-0.1-0.1-0.1l0,0l0,0v0l0,0l0,0c-0.1-0.3-0.2-0.7-0.4-1.5l0,0
		c0-0.3-0.1-0.5-0.1-0.6v0c-0.2-1.4-0.3-3.2-0.3-5.4h0v0v-9.8c0-3.8,0.4-6.9,1.1-9.2c0.1-0.4,0.3-0.8,0.4-1.2c0.2-0.4,0.3-0.7,0.5-1
		l0,0l0,0v0l0,0l0,0c1-1.7,2.3-2.6,4-2.6c0.4,0,0.7,0,0.8,0.1v0l0,0l0.1,0.1l0,0l0,0v0l0,0c0.2,0.3,0.3,0.9,0.5,1.6
		c0.2,1,0.2,2.3,0.2,4h0v20.5h0c0,1.6-0.1,2.9-0.3,3.8c-0.1,0.7-0.3,1.2-0.5,1.5l0,0c-0.1,0.2-0.3,0.3-0.5,0.4
		c-0.4,0.2-0.9,0.4-1.6,0.5L1104.4,73.7z M1094.5,26.5c0.6,1.3,1.1,2.7,1.6,4.3c0.4,1.6,0.7,3.4,0.9,5.4c3.2-3.6,6.4-6.3,9.8-7.9
		c3.4-1.7,7.1-2.5,11.3-2.5c5.2,0,8.9,1.3,11,3.9c2.1,2.6,3.1,7.4,3.1,14.4v22.2c0,4.2,0.4,7.1,1.2,8.5c0.8,1.4,2.4,2.3,4.7,2.6v2.7
		h-31.9v-2.7c2.3-0.3,3.9-1.2,4.8-2.6c0.9-1.4,1.4-3.9,1.4-7.4V46.9c0-3.6-0.4-6.1-1.2-7.6c-0.8-1.4-2.2-2.2-4.2-2.2
		c-3.2,0-5.7,1.5-7.4,4.6c-1.7,3.1-2.6,7.6-2.6,13.4V65c0,4.8,0.4,7.9,1.3,9.4c0.9,1.5,2.4,2.5,4.7,3v2.7H1072v-2.7
		c2-0.1,3.3-0.8,4-2c0.7-1.2,1.1-3.4,1.1-6.8V39.8c0-3.4-0.4-5.7-1.2-6.9c-0.8-1.2-2.3-1.9-4.4-2.2l0-2.7L1094.5,26.5z M1028.4,48.2
		l17.6-4.3c-0.6-3.5-1.6-6.2-3.1-8c-1.5-1.8-3.3-2.7-5.6-2.7c-2.5,0-4.7,1.1-6.5,3.2c-1.8,2.1-2.6,4.8-2.6,8c0,0.4,0,1.2,0.1,2.6
		C1028.3,47.5,1028.3,47.9,1028.4,48.2z M1032.5,41.1c0.3-0.9,0.7-1.6,1.3-2.3h0c0.5-0.6,1.1-1.1,1.6-1.4c0.5-0.3,1.1-0.4,1.8-0.4
		c0.5,0,1,0.1,1.3,0.3c0.4,0.2,0.8,0.5,1.2,1l0,0c0.5,0.6,0.9,1.3,1.3,2.3c0,0.1,0.1,0.2,0.1,0.3l-9.1,2.2
		C1032.2,42.5,1032.3,41.8,1032.5,41.1z M1011.2,73.7c0.9,0.9,1.9,1.8,2.9,2.7l0,0c3.1,2.6,6.6,4.6,10.5,6.2
		c0.7,0.3,1.5,0.6,2.3,0.8c4.7,1.5,9.8,2.3,15.5,2.3v0h0c1.5,0,3.4-0.1,5.6-0.3l1.3-0.1c0.7-0.1,1.1-0.1,1.3-0.1l0,0l0,0l0,0
		c1.8-0.2,3.1-0.3,3.8-0.4l0,0c1-0.1,1.7-0.1,2-0.1v0h1.2l0.4,0h0l0.3,0v0c0.4,0,1.1,0,1.7,0.1l0.4,0l3,0.1l0.9-2.9l6.3-21.1
		l1.3-4.2l-4.3-0.8l-2.9-0.5l-3.1-0.6l-1.2,2.9c-0.8,2-1.7,3.7-2.7,5.1c-0.9,1.3-2,2.4-3.1,3.3c-0.9,0.7-1.8,1.2-2.8,1.6
		c-0.2,0.1-0.4,0.2-0.6,0.2c-1.3,0.4-2.7,0.6-4.2,0.6v0h0c-2,0-3.7-0.3-5.3-0.9c-1.5-0.6-2.9-1.5-4.1-2.6c-1.2-1.2-2.3-2.7-3.1-4.4
		l0,0c-0.4-0.9-0.8-1.8-1.1-2.8l34.1-8.1l4.3-1l-1.6-4.2c-1.5-4-3.2-7.4-5.2-10.3c-2-3-4.3-5.5-6.9-7.4l0,0
		c-5.1-3.8-11.7-5.7-19.6-5.7c-5.1,0-9.8,0.7-14.1,2.2c-4.3,1.5-8.2,3.7-11.6,6.6c-2.9,2.5-5.1,5.2-6.8,8.3
		c-0.4,0.6-0.7,1.2-0.9,1.8c-1.7,3.8-2.6,7.9-2.6,12.4h0v0c0,7,2,13.1,6,18.4C1009.4,71.8,1010.3,72.7,1011.2,73.7z M1015.6,32.8
		c6-5.2,13.7-7.8,23.1-7.8c7.1,0,12.9,1.6,17.3,4.9c4.4,3.3,8,8.6,10.8,15.9l-37.9,9c0.9,5.5,3,9.8,6.2,12.9
		c3.2,3.1,7.2,4.7,12.1,4.7c3.9,0,7.2-1.1,10-3.3c2.8-2.2,5.1-5.5,7-10l2.9,0.5l-6.3,21.1c-0.8,0-1.5-0.1-2.2-0.1c-0.7,0-1.4,0-2,0
		c-1.1,0-3.2,0.2-6.3,0.5c-3.1,0.4-5.7,0.6-7.8,0.6c-10.5,0-19.1-2.8-25.8-8.3c-6.7-5.5-10-12.5-10-21
		C1006.6,44.5,1009.6,38,1015.6,32.8z M895.5,73.1c-0.2-0.1-0.3-0.2-0.3-0.3l0,0c-0.1-0.2-0.3-0.8-0.4-1.7c-0.2-1.2-0.3-2.8-0.3-4.7
		V44.1c0-3.8-0.3-7-0.9-9.7c-0.7-3-1.7-5.4-3.1-7.2l0,0c-1.3-1.6-2.9-2.8-4.9-3.7c-0.5-0.2-0.8-0.4-1.1-0.5c-2.2-0.8-4.9-1.2-8-1.2
		v0h0c-2.3,0-4.6,0.2-6.9,0.7c-2.2,0.5-4.3,1.2-6.3,2.2c-1.4,0.7-2.7,1.5-4,2.4V4.5V0l-4.5,0.6l-24,3.4l-3.4,0.5v3.4v2.8V14l3.3,0.5
		c0.3,0,0.5,0.1,0.7,0.2c0,0,0,0.1,0,0.2l0,0.4c0.1,0.9,0.2,2.2,0.2,3.7h0v0v49.8c0,2-0.1,3.5-0.4,4.4l-0.1,0.2l0,0.1c0,0,0,0-0.2,0
		h0c-0.1,0-0.2,0.1-0.3,0.1c-0.1,0-0.2,0-0.4,0h0v0l0,0l-3.7,0.2v3.7v2.7V84h3.9h31h3.9v0h31.2h3.9v-3.9v-2.7v-3.4l-3.3-0.5
		C896.3,73.4,895.8,73.3,895.5,73.1z M862.8,73.7l-0.7-0.1c-0.9-0.2-1.5-0.4-1.9-0.8c0,0-0.1-0.1-0.1-0.1l0,0l-0.1-0.1l0,0l0,0l0,0
		c-0.2-0.3-0.3-1-0.5-2.1c-0.2-1.3-0.3-3.2-0.3-5.4v-9.8c0-2.7,0.2-5,0.6-7c0.4-1.8,0.9-3.3,1.5-4.5l0,0c1-1.7,2.3-2.6,4-2.6
		c0.4,0,0.7,0,0.8,0.1l0,0l0,0l0,0c0.2,0.3,0.3,0.7,0.4,1.2v0c0,0.1,0,0.2,0.1,0.4c0.2,1.1,0.3,2.4,0.3,3.9h0v0h0v20.5h0
		c0,2.1-0.2,3.7-0.5,4.8c0,0.1-0.1,0.2-0.1,0.4c0,0.1-0.1,0.1-0.1,0.2l0,0l0,0c-0.1,0.2-0.3,0.3-0.5,0.4c-0.4,0.2-0.9,0.4-1.6,0.5
		L862.8,73.7z M896.4,80.1h-31.9v-2.7c2.3-0.3,3.9-1.2,4.8-2.6c0.9-1.4,1.4-3.9,1.4-7.4V46.9c0-3.6-0.4-6.1-1.2-7.6
		c-0.8-1.4-2.2-2.2-4.2-2.2c-3.2,0-5.7,1.5-7.4,4.6c-1.7,3.1-2.6,7.6-2.6,13.4V65c0,4.8,0.4,7.9,1.3,9.4c0.9,1.5,2.4,2.5,4.7,3v2.7
		h-31v-2.7c2-0.1,3.3-0.8,4.1-2c0.8-1.2,1.1-3.4,1.1-6.8V18.9c0-3.5-0.3-5.6-0.9-6.5c-0.6-0.9-1.7-1.5-3.4-1.7V7.9l24-3.4v31.8
		c3-3.6,6.3-6.2,9.7-7.9c3.4-1.7,7.2-2.5,11.5-2.5c5.2,0,8.9,1.3,11,3.9c2.1,2.6,3.1,7.4,3.1,14.4v22.2c0,4.2,0.4,7.1,1.3,8.5
		c0.8,1.4,2.4,2.3,4.7,2.6V80.1z M239.1,44.6c-0.6-0.8-1.2-1.5-1.8-2.1l0,0h0c-2.6-2.9-5.7-5.2-9.4-7l0.6-0.4
		c2.4-1.6,4.3-3.1,5.6-4.5l0,0c1.2-1.3,2.2-2.7,2.9-4.1v0c0.2-0.3,0.3-0.6,0.4-0.9l0,0c0.7-1.8,1.1-3.7,1.1-5.8h0v0
		c0-2.5-0.4-4.8-1.3-6.7v0c-0.9-2.1-2.4-3.8-4.3-5.1l0,0c-3.3-2.2-8.4-3.2-15.5-3.2h-48.1h-3.9v3.9v3l0,3.2l3.2,0.6
		c0.5,0.1,1,0.2,1.3,0.4c0.1,0.1,0.1,0.1,0.2,0.1c0.1,0.2,0.1,0.5,0.2,1.1c0,0.2,0.1,0.4,0.1,0.5c0.2,1.3,0.3,3,0.3,5h0v0v43.4
		c0,2.9-0.2,5-0.5,6.2c0,0.2-0.1,0.3-0.1,0.4l0,0c0,0-0.1,0.1-0.2,0.1c-0.3,0.2-0.7,0.3-1.2,0.4l-3.3,0.6v3.3v3V84h3.9h42v0
		c5.1,0,9.7-0.5,13.6-1.4c4.1-0.9,7.6-2.4,10.4-4.3l0,0c2.5-1.7,4.5-3.8,5.9-6.3c0.3-0.4,0.5-0.9,0.8-1.5c1.5-3,2.2-6.5,2.2-10.5h0
		v0c0-4.8-1.2-9.2-3.6-13.2C240.2,46.1,239.7,45.3,239.1,44.6z M232.9,75.1c-4.8,3.3-12.1,5-21.8,5h-42v-3c2-0.3,3.3-1.1,4.1-2.4
		c0.7-1.3,1.1-4.1,1.1-8.6V22.7c0-4.5-0.4-7.4-1.1-8.7c-0.7-1.2-2.1-2-4.1-2.4v-3h48.1c6.3,0,10.7,0.9,13.3,2.6
		c2.6,1.7,3.9,4.6,3.9,8.6c0,3-1.1,5.8-3.3,8.1c-2.2,2.4-6.5,5.2-12.7,8.3c6.7,1.6,12,4.5,15.9,8.8c3.9,4.3,5.9,9.3,5.9,15
		C240.1,66.8,237.6,71.8,232.9,75.1z M515.2,73.1c-0.2-0.1-0.3-0.2-0.3-0.3l0,0c-0.2-0.3-0.3-0.8-0.4-1.7c-0.2-1.2-0.3-2.8-0.3-4.8
		V44.1c0-5.5-0.6-9.9-1.9-13.1c-0.3-0.7-0.6-1.3-0.9-2c-0.4-0.7-0.8-1.2-1.2-1.8l0,0l0,0v0c-1.3-1.6-2.9-2.8-4.9-3.7
		c-0.5-0.2-0.8-0.4-1.1-0.5c-2.2-0.8-4.9-1.2-8-1.2v0h0c-2.3,0-4.6,0.2-6.8,0.7c-2.2,0.5-4.3,1.2-6.3,2.2l0,0
		c-1.9,0.9-3.8,2.1-5.6,3.6c-0.1-0.4-0.3-0.8-0.4-1.2c-0.3-0.9-0.7-1.7-1.1-2.5l-1.2-2.3l-2.5,0.2l-23,1.5l-3.7,0.2l0.1,3.7l0.1,2.7
		l0.1,3.4l3.3,0.4c0.6,0.1,1.1,0.2,1.4,0.4c0.1,0,0.1,0.1,0.2,0.1c0.1,0.2,0.2,0.6,0.3,1.2c0.2,0.9,0.2,2.1,0.2,3.6v28.8
		c0,2.1-0.1,3.5-0.4,4.4l0,0c0,0.1-0.1,0.2-0.1,0.3l0,0v0l0,0l0,0v0l0,0c0,0-0.1,0-0.2,0h0c-0.1,0-0.2,0.1-0.3,0.1
		c-0.1,0-0.2,0-0.4,0h0v0l0,0l-3.7,0.2v3.7v2.7V84h3.9h30.9h3.9v0h31.2h3.9v-3.9v-2.7v-3.4l-3.3-0.5
		C516.1,73.4,515.6,73.3,515.2,73.1z M482.5,73.7l-0.7-0.1c-0.9-0.2-1.5-0.4-1.9-0.8c0,0-0.1-0.1-0.1-0.1c-0.1-0.1-0.1-0.1-0.1-0.1
		l0,0l0,0l0,0l0,0l0,0l0,0c-0.2-0.3-0.3-1-0.5-2.1c-0.2-1.3-0.3-3.2-0.3-5.4v-9.8c0-3.8,0.4-6.9,1.1-9.2c0.1-0.4,0.3-0.8,0.4-1.2
		c0.2-0.4,0.3-0.7,0.5-1l0,0l0,0v0l0,0l0,0c1-1.7,2.3-2.6,4-2.6c0.4,0,0.7,0,0.8,0.1l0,0l0,0l0,0v0l0,0l0,0c0.1,0.3,0.3,0.7,0.4,1.2
		l0,0l0.1,0.4c0.2,1.1,0.3,2.4,0.3,3.9h0v0h0v20.5h0c0,1.6-0.1,2.8-0.3,3.8c-0.1,0.7-0.3,1.2-0.4,1.5l0,0c-0.1,0.2-0.3,0.3-0.5,0.4
		c-0.4,0.2-0.9,0.4-1.6,0.5L482.5,73.7z M516.2,80.1h-31.9v-2.7c2.3-0.3,3.9-1.2,4.8-2.6c0.9-1.4,1.4-3.9,1.4-7.4V46.9
		c0-3.6-0.4-6.1-1.2-7.6c-0.8-1.4-2.2-2.2-4.2-2.2c-3.2,0-5.7,1.5-7.4,4.6c-1.7,3.1-2.6,7.6-2.6,13.4V65c0,4.8,0.4,7.9,1.3,9.4
		c0.8,1.5,2.4,2.5,4.7,3v2.7h-30.9v-2.7c1.9-0.1,3.3-0.8,4.1-2c0.7-1.2,1.1-3.4,1.1-6.8V39.8c0-3.4-0.4-5.7-1.2-6.9
		c-0.8-1.2-2.3-1.9-4.4-2.2l-0.1-2.7l23-1.5c0.6,1.3,1.1,2.7,1.6,4.3c0.4,1.6,0.7,3.4,0.9,5.4c3.2-3.6,6.4-6.3,9.8-7.9
		c3.4-1.7,7.1-2.5,11.3-2.5c5.2,0,8.9,1.3,11,3.9c2.1,2.6,3.1,7.4,3.1,14.4v22.2c0,4.2,0.4,7.1,1.2,8.5c0.8,1.4,2.4,2.3,4.7,2.6
		V80.1z M684.8,22.3l-0.2,0c-1.2-0.1-2.1-0.2-2.7-0.3c-0.8-0.1-1.5-0.1-2.1-0.1c-1.9,0-3.8,0.3-5.6,0.8c-1.8,0.5-3.5,1.3-5.2,2.3
		l0,0c-1.2,0.8-2.4,1.7-3.6,2.7c-0.1-0.2-0.1-0.4-0.2-0.6l0,0c-0.3-0.9-0.7-1.7-1.1-2.5l-1.2-2.3l-2.5,0.2l-23,1.5l-3.7,0.2l0.1,3.7
		l0,2.7l0.1,3.4l3.4,0.4c0.6,0.1,1.1,0.2,1.4,0.4c0.1,0,0.2,0.1,0.2,0.1c0.1,0.1,0.2,0.4,0.2,0.8l0,0c0,0,0,0.1,0.1,0.4l0,0
		c0.2,0.9,0.2,2.1,0.3,3.5h0v0v28.8c0,1.6-0.1,2.9-0.2,3.8v0c-0.1,0.5-0.1,0.8-0.1,0.8c0,0-0.2,0.1-0.4,0.1c-0.1,0-0.3,0.1-0.3,0.1
		h0c-0.1,0-0.3,0-0.4,0.1h0v0l0,0l-3.5,0.4v3.5v2.7V84l3.9,0h30.9l3.9,0v-3.9v-2.7v-3.2l-3.1-0.6c-0.9-0.2-1.5-0.5-1.9-0.8
		c-0.1-0.1-0.1-0.1-0.1-0.1c0,0-0.1-0.1-0.1-0.1l0,0l0,0l0,0c-0.1-0.2-0.2-0.7-0.4-1.4c-0.1-0.3-0.1-0.5-0.1-0.6
		c-0.2-1.4-0.3-3.2-0.3-5.4h0v0v-7.8c0-3.7,0.2-6.8,0.5-9.1c0.3-2,0.6-3.5,1.1-4.2l0,0c0.3-0.5,0.7-0.9,1.2-1.2
		c0.6-0.3,1.4-0.5,2.5-0.5c0.3,0,0.7,0,1.1,0.1c0.5,0.1,0.9,0.2,1.4,0.3l0.1,0c0.6,0.2,1.2,0.4,1.8,0.7c0.7,0.3,1.4,0.7,2.2,1.1
		l4.3,2.2l1.2-4.7l3.9-14.8l1.1-4.1l-4.2-0.7L684.8,22.3z M680.6,41c-1.8-0.9-3.3-1.6-4.6-2c-1.4-0.5-2.6-0.7-3.7-0.7
		c-3.4,0-5.7,1.2-7.1,3.6c-1.4,2.4-2.1,7.5-2.1,15.2V65c0,4.8,0.4,8,1.3,9.5c0.9,1.5,2.4,2.5,4.7,2.9v2.7h-30.9v-2.7
		c1.9-0.2,3.3-0.8,4-1.9c0.8-1.1,1.1-3.4,1.1-6.9V39.8c0-3.4-0.4-5.7-1.2-6.9c-0.8-1.2-2.3-1.9-4.4-2.2l0-2.7l23-1.5
		c0.6,1.3,1.1,2.7,1.6,4.3c0.4,1.6,0.7,3.4,0.9,5.4c2.6-3.6,5.2-6.2,7.9-7.9c2.7-1.7,5.6-2.6,8.7-2.6c0.9,0,2.3,0.1,4.4,0.4l0.3,0.1
		L680.6,41z M609,35.9c-1.5-1.8-3.3-2.7-5.6-2.7c-2.5,0-4.7,1.1-6.5,3.2c-1.8,2.1-2.6,4.8-2.6,8c0,0.4,0,1.2,0.1,2.6
		c0,0.5,0.1,0.9,0.1,1.3l17.6-4.3C611.5,40.4,610.5,37.8,609,35.9z M598.3,43.3c0.1-0.8,0.2-1.5,0.4-2.1h0c0.3-0.9,0.7-1.6,1.2-2.3
		l0,0c0.5-0.6,1.1-1.1,1.7-1.4c0.5-0.3,1.1-0.4,1.8-0.4c0.5,0,1,0.1,1.4,0.3c0.4,0.2,0.8,0.5,1.2,1l0,0c0.5,0.6,0.9,1.3,1.3,2.3
		c0,0.1,0.1,0.2,0.1,0.3L598.3,43.3z M563.2,59.4l-3.3-1l-1.4,3.2c-0.6,1.3-1.2,2.4-1.8,3.4c-0.6,0.9-1.2,1.6-1.8,2.2v0
		c-0.4,0.4-0.9,0.7-1.3,0.9l0,0l-0.2,0.1c-0.4,0.2-0.9,0.3-1.3,0.3v0h0c-0.6,0-1-0.1-1.2-0.2c0,0,0,0,0,0l0,0l0-0.1l0-0.1l0,0l0,0
		c-0.1-0.2-0.2-0.5-0.3-1v0l-0.1-0.4c-0.2-1.1-0.3-2.4-0.3-3.9v0h0V38.6h2.8c0.8,0,1.4,0,1.7,0c0.4,0,0.7,0,1,0.1l0,0
		c0.2,0,0.5,0.1,0.8,0.2l0,0l0.1,0c0.1,0,0,0,0.1,0.1l0,0l4.1,2.1l1.3-4.5l2.8-9.2l2.8-9.2l-8.4,4.6c-0.5,0.3-0.9,0.5-1.4,0.6
		l-0.3,0.1l0,0c0,0-0.1,0-0.2,0l0,0l-0.1,0c-0.3,0.1-0.6,0.1-0.9,0.2v0c-0.4,0-0.9,0.1-1.5,0.1h-4.8V7.2V1.6l-5.2,1.9L526.6,10
		l-3,1.1l0.4,3.1c0.2,1.2,0.2,1.5,0.2,1.8c0.1,0.4,0.1,0.7,0.2,1.3l0,0h0c0,0.2,0,0.5,0.1,0.7v0h0l0,0.1h0c0,0.3,0,0.5,0,0.6h0v0.1
		c0,1.3-0.2,2.5-0.5,3.6c-0.3,1.1-0.8,2.1-1.4,3c-0.6,0.9-1.1,1.5-1.7,1.8c-0.4,0.2-0.7,0.4-1.1,0.4l-3.8,0.1l0,3.8v3.2v3.9h3.9h2.3
		v26c0,3.3,0.4,6.3,1.2,8.8c0.9,2.8,2.2,5.1,4,6.9c1.8,1.8,4,3.2,6.8,4.1c2.5,0.8,5.4,1.2,8.7,1.2c1.1,0,2.3-0.1,3.6-0.2
		c1.3-0.1,2.5-0.3,3.9-0.5h0.1c1.7-0.3,3.8-0.7,6.2-1.3c1.1-0.3,1.1-0.2,1.4-0.3l1.4-0.4h0l0,0l1.9-0.5l0.7-1.8l6.2-15.3l1.6-3.9
		l-4.1-1.3L563.2,59.4z M557.8,79.3c-3.3,0.9-6.2,1.5-8.7,1.9c-2.5,0.4-4.8,0.6-6.9,0.6c-5.8,0-10-1.4-12.7-4.1c-2.7-2.8-4-7.1-4-13
		v-30h-6.2v-3.2c2.2-0.1,4.2-1.4,5.9-3.9c1.7-2.5,2.6-5.4,2.6-8.8c0-0.5,0-1.1-0.1-1.9c-0.1-0.8-0.3-1.8-0.4-3.2l18.1-6.5v20.7h8.8
		c1.5,0,2.6-0.1,3.5-0.4c0.9-0.2,1.9-0.6,2.8-1.1l-2.8,9.2c-0.6-0.3-1.4-0.5-2.1-0.7c-0.8-0.1-1.9-0.2-3.3-0.2h-6.7v28.1
		c0,3.6,0.4,6.1,1.3,7.5c0.9,1.4,2.4,2.1,4.5,2.1c2,0,3.8-0.8,5.5-2.4c1.7-1.6,3.2-3.9,4.6-6.9l2.6,0.8L557.8,79.3z M439.7,72.7
		L439.7,72.7c-0.1-0.2-0.2-0.5-0.3-1c-0.2-0.9-0.2-2.1-0.2-3.6V26.5v-4.1l-4.1,0.2l-25.5,1.5l-3.7,0.2v3.7v2.7v3.4l3.4,0.5
		c0.9,0.1,1.5,0.3,1.8,0.5c0,0,0,0,0,0l0,0l0,0c0.3,0.5,0.5,2.1,0.5,4.7h0v13h0c0,2.7-0.2,5-0.6,6.9c-0.3,1.8-0.8,3.3-1.5,4.4
		c-0.5,0.9-1.1,1.6-1.7,2c-0.6,0.4-1.4,0.6-2.3,0.6c-0.3,0-0.6,0-0.7-0.1c0,0-0.1-0.1-0.1-0.2l0,0c-0.2-0.3-0.4-0.8-0.5-1.6
		c-0.2-0.9-0.2-2.1-0.2-3.6V26.5l0-4.1l-4.1,0.2l-25.5,1.5l-3.7,0.2v3.7v2.7v3.5l3.4,0.4c0.6,0.1,1.1,0.2,1.5,0.4
		c0.1,0.1,0.2,0.1,0.2,0.1l0,0c0.1,0.1,0.2,0.5,0.3,1.1c0.2,0.9,0.2,2.1,0.2,3.6v23.4c0,3.7,0.3,6.9,0.9,9.7c0.7,3,1.7,5.4,3.2,7.2
		l0,0c1.5,1.9,3.5,3.3,6,4.2c2.3,0.8,4.9,1.2,7.9,1.2v0c2.3,0,4.5-0.2,6.6-0.7c2.1-0.5,4.2-1.2,6.2-2.1h0c1.9-0.9,3.8-2,5.6-3.4
		l0.1,0.2c0.3,0.8,0.6,1.6,0.9,2.3l1.1,2.2h2.5H441h3.9v-3.9v-3v-3.4l-3.4-0.5C440.6,73.1,440.1,72.9,439.7,72.7z M440.7,80.1h-23.6
		c-0.6-1.2-1-2.5-1.4-3.9c-0.3-1.4-0.5-2.9-0.6-4.6c-3.2,3.4-6.5,5.9-9.9,7.5c-3.4,1.6-7.1,2.4-11.2,2.4c-5.2,0-8.8-1.3-10.9-3.9
		c-2.1-2.6-3.2-7.4-3.2-14.4V39.8c0-3.5-0.4-5.8-1.3-7c-0.8-1.2-2.3-1.9-4.4-2.2v-2.7l25.5-1.5v34.7c0,3.3,0.4,5.7,1.3,7.1
		c0.9,1.5,2.3,2.2,4.2,2.2c3.2,0,5.7-1.5,7.4-4.5c1.7-3,2.5-7.4,2.5-13.2v-13c0-3.4-0.4-5.7-1.3-6.9c-0.8-1.2-2.3-1.9-4.5-2.2v-2.7
		l25.5-1.5v41.6c0,3.4,0.4,5.7,1.3,6.9c0.8,1.1,2.3,1.8,4.4,2.1V80.1z M309,72.7L309,72.7L309,72.7c-0.1-0.2-0.2-0.5-0.3-1
		c-0.2-0.9-0.2-2.1-0.2-3.6V26.5v-4.1l-4.1,0.2l-25.6,1.5l-3.7,0.2v3.7v2.7v3.4l3.4,0.5c0.7,0.1,1.2,0.2,1.6,0.4
		c0.1,0.1,0.2,0.1,0.3,0.2l0,0c0,0.1,0.1,0.3,0.2,0.6l0,0c0,0,0,0.1,0.1,0.4l0,0c0.2,0.9,0.2,2.1,0.2,3.6h0v0h0v13h0
		c0,2.7-0.2,5-0.5,6.9c-0.3,1.8-0.8,3.3-1.5,4.4c-0.5,0.9-1.1,1.6-1.7,2c-0.6,0.4-1.3,0.6-2.2,0.6c-0.3,0-0.6,0-0.7-0.1
		c0,0-0.1-0.1-0.1-0.2l0,0c-0.2-0.3-0.3-0.7-0.4-1.2c0-0.2-0.1-0.3-0.1-0.4v0c-0.2-1-0.3-2.1-0.3-3.5h0v0V26.5v-4.1l-4.1,0.2
		l-25.4,1.5l-3.7,0.2v3.7v2.7v3.5l3.4,0.4c0.6,0.1,1.1,0.2,1.5,0.4c0.1,0.1,0.2,0.1,0.2,0.1h0c0.1,0.2,0.2,0.5,0.3,1.1
		c0.2,0.9,0.2,2.1,0.2,3.6v23.4c0,3.7,0.3,6.9,0.9,9.7c0.7,3,1.7,5.4,3.2,7.2c1.3,1.6,2.9,2.8,4.9,3.7c0.3,0.1,0.7,0.3,1.1,0.5
		c2.2,0.8,4.9,1.2,7.9,1.2v0h0v0c2.3,0,4.5-0.2,6.6-0.7c2.2-0.5,4.2-1.2,6.2-2.1h0c1.9-0.9,3.8-2,5.6-3.5l0.1,0.2
		c0.3,0.8,0.6,1.5,1,2.3l1.1,2.2h2.4h23.6h3.9v-3.9v-3v-3.4l-3.4-0.5C309.9,73.1,309.3,72.9,309,72.7z M310,80.1h-23.6
		c-0.6-1.2-1-2.5-1.4-3.9c-0.3-1.4-0.5-2.9-0.6-4.6c-3.2,3.4-6.5,5.9-9.9,7.5c-3.4,1.6-7.1,2.4-11.2,2.4c-5.2,0-8.8-1.3-10.9-3.9
		c-2.1-2.6-3.2-7.4-3.2-14.4V39.8c0-3.5-0.4-5.8-1.3-7c-0.8-1.2-2.3-1.9-4.4-2.2v-2.7l25.4-1.5v34.7c0,3.3,0.4,5.7,1.3,7.1
		c0.9,1.5,2.3,2.2,4.2,2.2c3.2,0,5.7-1.5,7.4-4.5c1.7-3,2.5-7.4,2.5-13.2v-13c0-3.4-0.4-5.7-1.2-6.9c-0.8-1.2-2.4-1.9-4.5-2.2v-2.7
		l25.6-1.5v41.6c0,3.4,0.4,5.7,1.2,6.9c0.8,1.1,2.3,1.8,4.5,2.1V80.1z M638.2,56.6l-4.3-0.8l-2.9-0.5l-3.1-0.6l-1.2,2.9
		c-0.8,2-1.7,3.7-2.7,5.1c-0.9,1.3-2,2.4-3.1,3.3c-0.9,0.7-1.8,1.2-2.8,1.6c-0.2,0.1-0.4,0.2-0.6,0.2c-1.3,0.4-2.7,0.6-4.2,0.6v0h0
		c-2.8,0-5.2-0.6-7.1-1.8c-0.3-0.2-0.7-0.5-1.1-0.8l0,0c-0.3-0.3-0.7-0.6-1-0.9l0,0l0,0l0,0l0,0c-1.2-1.2-2.3-2.7-3.1-4.5
		c-0.4-0.9-0.8-1.8-1.1-2.8l34.1-8.1l4.3-1l-1.6-4.1c-1.5-4-3.2-7.4-5.2-10.3c-2-3-4.3-5.5-6.9-7.4l0,0c-5.1-3.8-11.7-5.7-19.6-5.7
		c-5.1,0-9.8,0.7-14,2.2c-4.3,1.5-8.2,3.7-11.6,6.6c-2.9,2.5-5.1,5.2-6.8,8.3c-0.4,0.6-0.7,1.2-0.9,1.8c-1.7,3.8-2.6,7.9-2.6,12.4h0
		v0c0,7,2,13.1,6,18.4c0.8,1,1.6,2,2.5,2.9c0.9,1,1.9,1.9,2.9,2.7l0,0l0,0c3.1,2.6,6.6,4.7,10.4,6.2h0c0.7,0.3,1.5,0.6,2.3,0.8
		c4.7,1.5,9.8,2.3,15.5,2.3v0h0c1.5,0,3.4-0.1,5.6-0.3c0.6-0.1,1.1-0.1,1.3-0.1c0.7-0.1,1.1-0.1,1.3-0.1l0,0l0,0l0,0
		c1.8-0.2,3.1-0.3,3.8-0.4l0,0c1-0.1,1.7-0.1,2-0.1v0h1.2l0.4,0h0l0.3,0v0c0.4,0,1.2,0,2,0.1l0.2,0l3,0.1l0.9-2.9l6.3-21.1
		L638.2,56.6z M626.8,80.7c-0.8,0-1.5-0.1-2.2-0.1c-0.7,0-1.4,0-2,0c-1.1,0-3.2,0.2-6.3,0.5c-3.1,0.4-5.7,0.6-7.8,0.6
		c-10.5,0-19.1-2.8-25.7-8.3c-6.7-5.5-10-12.5-10-21c0-7.8,3-14.3,9-19.5c6-5.2,13.7-7.8,23.1-7.8c7.1,0,12.9,1.6,17.3,4.9
		c4.4,3.3,8,8.6,10.8,15.9l-37.9,9c0.9,5.5,3,9.8,6.1,12.9c3.2,3.1,7.2,4.7,12.1,4.7c3.9,0,7.2-1.1,10-3.3c2.8-2.2,5.2-5.5,7-10
		l2.9,0.5L626.8,80.7z M830.4,56.6l-4.3-0.8l-2.9-0.5l-3.1-0.6l-1.2,2.9c-0.8,2-1.7,3.7-2.7,5.1c-0.9,1.3-2,2.4-3.1,3.3
		c-0.9,0.7-1.8,1.2-2.8,1.6c-0.2,0.1-0.4,0.2-0.6,0.2c-1.3,0.4-2.7,0.6-4.2,0.6v0h0c-2,0-3.7-0.3-5.2-0.9c-1.5-0.6-2.9-1.5-4.1-2.7
		c-1.2-1.2-2.3-2.7-3.1-4.4l0,0c-0.4-0.9-0.8-1.8-1.1-2.8l34.1-8.1l4.3-1l-1.6-4.2c-1.5-3.9-3.2-7.4-5.2-10.3c-2-3-4.4-5.5-6.9-7.4
		l0,0c-5.1-3.8-11.7-5.7-19.6-5.7c-5.1,0-9.8,0.7-14.1,2.2c-4.3,1.5-8.2,3.7-11.6,6.6c-2.9,2.5-5.1,5.2-6.8,8.3
		c-0.4,0.6-0.7,1.2-0.9,1.8c-1.7,3.8-2.6,7.9-2.6,12.4h0v0c0,7,2,13.1,6,18.4c0.8,1,1.6,2,2.5,2.9c0.9,1,1.9,1.9,2.9,2.7l0,0l0,0
		c3.7,3.1,8,5.4,12.7,7c4.7,1.5,9.9,2.3,15.5,2.3c1.5,0,3.4-0.1,5.6-0.3c0.6-0.1,1.1-0.1,1.3-0.1l1.3-0.1l0,0l0,0l0,0
		c1.8-0.2,3.1-0.3,3.8-0.4l0,0c1-0.1,1.7-0.1,2.1-0.1v0h1.2l0.7,0v0c0.5,0,1.2,0,2,0.1l0.2,0l3,0.1l0.9-2.9l6.4-21.1L830.4,56.6z
		 M819,80.7c-0.8,0-1.5-0.1-2.2-0.1c-0.7,0-1.3,0-2,0c-1.1,0-3.2,0.2-6.3,0.5c-3.1,0.4-5.7,0.6-7.8,0.6c-10.5,0-19.1-2.8-25.7-8.3
		c-6.7-5.5-10-12.5-10-21c0-7.8,3-14.3,9-19.5c6-5.2,13.7-7.8,23.1-7.8c7.1,0,12.9,1.6,17.3,4.9c4.4,3.3,8,8.6,10.8,15.9l-37.9,9
		c0.9,5.5,3,9.8,6.1,12.9c3.2,3.1,7.2,4.7,12.1,4.7c3.9,0,7.3-1.1,10.1-3.3c2.8-2.2,5.1-5.5,7-10l2.9,0.5L819,80.7z M801.2,35.9
		c-1.5-1.8-3.3-2.7-5.6-2.7c-2.5,0-4.7,1.1-6.5,3.2c-1.8,2.1-2.6,4.8-2.6,8c0,0.4,0,1.2,0.1,2.6c0,0.5,0.1,0.9,0.1,1.3l17.6-4.3
		C803.7,40.4,802.6,37.8,801.2,35.9z M790.5,43.3c0.1-0.8,0.2-1.5,0.4-2.1c0.3-0.8,0.7-1.6,1.3-2.3l0,0c0.5-0.6,1.1-1.1,1.7-1.4
		c0.5-0.3,1.1-0.4,1.8-0.4c0.5,0,1,0.1,1.3,0.3l0,0c0.4,0.2,0.8,0.5,1.2,1l0,0c0.5,0.7,1,1.5,1.4,2.6L790.5,43.3z M759.7,73.1
		c-0.2-0.1-0.3-0.2-0.3-0.3l0,0c-0.5-0.8-0.7-3-0.7-6.5V44.1c0-5.5-0.6-9.9-1.9-13.1c-0.3-0.7-0.6-1.3-0.9-2
		c-0.4-0.7-0.8-1.2-1.2-1.8l0,0l0,0v0c-1.3-1.6-2.9-2.8-4.9-3.7c-0.5-0.2-0.8-0.4-1.1-0.5h0c-2.2-0.8-4.9-1.2-8-1.2v0h0v0
		c-2.4,0-4.7,0.2-6.8,0.7c-2.2,0.5-4.3,1.2-6.3,2.2l0,0c-1.9,0.9-3.7,2.1-5.6,3.6c-0.1-0.4-0.3-0.8-0.4-1.2
		c-0.3-0.8-0.7-1.7-1.1-2.5l-1.2-2.3l-2.5,0.2l-23,1.5l-3.7,0.2l0.1,3.7l0.1,2.7l0.1,3.4l3.4,0.4c0.6,0.1,1.1,0.2,1.4,0.4
		c0.1,0.1,0.2,0.1,0.2,0.1c0.1,0.1,0.2,0.4,0.2,0.8l0,0c0,0,0,0.1,0.1,0.4l0,0c0.2,0.9,0.2,2.1,0.2,3.5h0v0v28.8
		c0,2.1-0.1,3.5-0.4,4.5c0,0.1-0.1,0.2-0.1,0.3c0,0-0.1,0-0.2,0c-0.1,0-0.2,0.1-0.3,0.1c-0.1,0-0.2,0-0.4,0v0l0,0l-3.7,0.2v3.7v2.7
		V84h3.9h30.9h3.9v0h31.2h3.9v-3.9v-2.7v-3.4l-3.3-0.5C760.5,73.4,760,73.3,759.7,73.1z M727,73.7l-0.7-0.1
		c-0.9-0.2-1.5-0.4-1.9-0.8c-0.1-0.1-0.1-0.1-0.1-0.1l0,0c-0.1-0.1-0.1-0.1-0.1-0.2l0,0l0,0c-0.2-0.3-0.3-1-0.5-2.1
		c-0.2-1.3-0.3-3.2-0.3-5.4v-9.8c0-3.8,0.4-6.9,1.1-9.2c0.1-0.4,0.3-0.8,0.4-1.2c0.2-0.4,0.3-0.7,0.5-1l0,0l0,0l0,0
		c1-1.7,2.3-2.6,4-2.6c0.4,0,0.7,0,0.8,0.1l0,0l0,0l0,0c0.2,0.3,0.3,0.7,0.4,1.2v0c0,0.1,0,0.2,0.1,0.4c0.2,1.1,0.3,2.4,0.3,3.9h0v0
		h0v20.5h0c0,2.1-0.2,3.7-0.5,4.8c0,0.1-0.1,0.2-0.1,0.4v0l0,0.1l0,0l0,0l0,0l0,0l0,0c-0.1,0.1-0.3,0.3-0.5,0.4
		c-0.4,0.2-0.9,0.4-1.6,0.5L727,73.7z M760.6,80.1h-31.9v-2.7c2.3-0.3,3.9-1.2,4.8-2.6c0.9-1.4,1.4-3.9,1.4-7.4V46.9
		c0-3.6-0.4-6.1-1.2-7.6c-0.8-1.4-2.2-2.2-4.2-2.2c-3.2,0-5.7,1.5-7.4,4.6c-1.7,3.1-2.6,7.6-2.6,13.4V65c0,4.8,0.4,7.9,1.3,9.4
		c0.9,1.5,2.4,2.5,4.7,3v2.7h-30.9v-2.7c1.9-0.1,3.3-0.8,4.1-2c0.7-1.2,1.1-3.4,1.1-6.8V39.8c0-3.4-0.4-5.7-1.2-6.9
		c-0.8-1.2-2.3-1.9-4.4-2.2l-0.1-2.7l23-1.5c0.6,1.3,1.2,2.7,1.6,4.3c0.4,1.6,0.7,3.4,0.9,5.4c3.2-3.6,6.4-6.3,9.8-7.9
		c3.4-1.7,7.1-2.5,11.3-2.5c5.2,0,8.9,1.3,11,3.9c2.1,2.6,3.1,7.4,3.1,14.4v22.2c0,4.2,0.4,7.1,1.3,8.5c0.8,1.4,2.4,2.3,4.7,2.6
		V80.1z M371.2,49.8c-0.3-0.5-0.7-1-1.1-1.4l0,0l0,0c-0.8-1-1.8-1.9-2.9-2.7l2.7,0l-0.3-4.2L368.1,25l-0.4-5.3l-4.9,2
		c-0.8,0.3-1.5,0.6-2.1,0.8l0,0l-0.3,0.1l0,0l-0.4,0.1l0,0c-0.2,0-0.4,0.1-0.6,0.1l0,0l-0.1,0l0,0c-0.2,0-0.4,0-0.4,0.1v0h0
		c-0.4,0-1.4-0.1-3-0.4l0,0l-1.1-0.2l0,0l-1.3-0.2l0,0l0,0l0,0c-1.7-0.3-3.3-0.5-4.8-0.7c-1.6-0.2-3-0.2-4.2-0.2
		c-4.1,0-7.8,0.5-11.2,1.4c-3.5,1-6.6,2.4-9.2,4.4l0,0c-2.3,1.7-4.2,3.6-5.5,5.7c-0.2,0.4-0.5,0.8-0.8,1.3c-1.5,2.7-2.2,5.7-2.2,9h0
		v0c0,3.6,0.9,6.9,2.6,9.7v0c0.3,0.5,0.7,1.1,1.1,1.6c0.3,0.4,0.7,0.9,1.1,1.3h-2.2H314l0.3,4.2l1.6,21.3l0.4,5l4.8-1.6
		c0.3-0.1,0.8-0.3,1.6-0.5l0,0c0.5-0.2,0.9-0.3,1.2-0.3c0.3-0.1,0.6-0.1,0.8-0.2c0.1,0,0.1,0,0.2,0c0,0,0.8,0.2,2.4,0.5l0,0l1.2,0.2
		l0,0l1.4,0.3l0,0l0,0h0c1.9,0.4,3.8,0.7,5.6,0.9c1.8,0.2,3.6,0.3,5.4,0.3v0c7.3,0,13.5-1.1,18.5-3.1c1-0.4,2-0.9,2.9-1.4
		c1-0.5,1.9-1.1,2.7-1.6l0,0l0,0c3.1-2.2,5.4-4.9,7-8c1.6-3.1,2.3-6.6,2.3-10.6c0-3.5-0.7-6.7-2.2-9.4
		C371.9,50.9,371.6,50.3,371.2,49.8z M362.6,76.2c-5.1,3.6-12.4,5.4-21.8,5.4c-3.2,0-6.6-0.4-10.2-1.1c-3.6-0.7-5.5-1.1-5.9-1.1
		c-0.4,0-1.1,0.1-1.9,0.3c-0.9,0.2-1.9,0.5-3.1,0.9L318,59.3h2.9c1.1,4.7,3.3,8.3,6.5,10.8c3.2,2.5,7.2,3.8,12,3.8
		c3.4,0,6.1-0.6,8.2-1.9c2-1.2,3.1-2.9,3.1-5c0-3.1-3.6-5.5-10.8-7.2c-1.9-0.5-3.4-0.8-4.5-1.2c-5.6-1.4-9.7-3.4-12.3-5.9
		c-2.6-2.6-3.9-5.9-3.9-9.9c0-5.3,2.3-9.6,6.9-12.9c4.6-3.3,10.6-5,18.2-5c2.3,0,5.1,0.3,8.3,0.8c3.2,0.6,5.3,0.9,6.1,0.9
		c0.6,0,1.4-0.1,2.2-0.3c0.8-0.2,1.9-0.6,3.1-1.1l1.4,16.4h-2.8c-1.7-3.2-3.8-5.6-6.6-7.4c-2.8-1.7-5.8-2.6-9.3-2.6
		c-2.3,0-4.1,0.5-5.6,1.5c-1.5,0.9-2.2,2.1-2.2,3.4c0,2.2,2.4,4,7.2,5.4c0.6,0.2,1.1,0.3,1.5,0.4l8.9,2.6c4.7,1.4,8.2,3.3,10.4,5.9
		c2.2,2.5,3.3,5.8,3.3,9.9C370.2,67.4,367.7,72.5,362.6,76.2z M334.7,62.6L334.7,62.6c0.9,0.3,1.9,0.5,3,0.8l0.7,0.2h0l0.8,0.2l0,0
		l0,0l0,0c3.9,0.9,6.5,1.9,7.6,3.1c0.1,0.1,0.2,0.2,0.2,0.3c0,0,0,0,0,0h0v0h0c0,0.3-0.1,0.6-0.2,0.8c-0.2,0.3-0.5,0.6-1,0.9l0,0
		c-0.7,0.4-1.5,0.7-2.4,0.9c-1,0.2-2.3,0.4-3.8,0.4c-2.9,0-5.3-0.5-7.4-1.5c-0.4-0.2-0.8-0.4-1.1-0.6c-0.4-0.2-0.7-0.5-1-0.7l0,0
		l0,0v0c-1.8-1.4-3.2-3.3-4.1-5.6c-0.2-0.4-0.4-0.9-0.5-1.5c-0.1-0.4-0.2-0.8-0.3-1.1c1.5,0.8,3.1,1.6,4.9,2.2
		c0.8,0.3,1.6,0.5,2.3,0.8C333,62.1,333.8,62.3,334.7,62.6L334.7,62.6L334.7,62.6z M343.6,36.5c0.4-0.2,0.8-0.4,1.3-0.6
		c0.6-0.1,1.3-0.2,2.1-0.2c1.4,0,2.6,0.2,3.8,0.5c1.2,0.3,2.3,0.8,3.4,1.5l0,0c1.1,0.7,2,1.5,2.9,2.4c0.3,0.4,0.7,0.8,1,1.2l-0.1,0
		l0,0l-8.9-2.6l0,0c-0.5-0.1-0.9-0.3-1.4-0.4l-0.1,0c-1.9-0.6-3.2-1.2-4.1-1.8L343.6,36.5L343.6,36.5L343.6,36.5L343.6,36.5z"/>
	<path class="st4" d="M1072,80.1v-2.7l0,0c2-0.1,3.3-0.8,4-2c0.7-1.2,1.1-3.4,1.1-6.8l0,0V39.8l0,0c0-3.4-0.4-5.7-1.2-6.9
		c-0.8-1.2-2.3-1.9-4.4-2.2l0,0l0-2.7l23-1.5l0,0c0.6,1.3,1.1,2.7,1.6,4.3c0.4,1.6,0.7,3.4,0.9,5.4c3.2-3.6,6.4-6.3,9.8-7.9
		c3.4-1.7,7.1-2.5,11.3-2.5c5.2,0,8.9,1.3,11,3.9c2.1,2.6,3.1,7.4,3.1,14.4l0,0v22.2l0,0c0,4.2,0.4,7.1,1.2,8.5
		c0.8,1.4,2.4,2.3,4.7,2.6l0,0v2.7h-31.9v-2.7l0,0c2.3-0.3,3.9-1.2,4.8-2.6c0.9-1.4,1.4-3.9,1.4-7.4l0,0V46.9l0,0
		c0-3.6-0.4-6.1-1.2-7.6c-0.8-1.4-2.2-2.2-4.2-2.2c-3.2,0-5.7,1.5-7.4,4.6c-1.7,3.1-2.6,7.6-2.6,13.4l0,0V65l0,0
		c0,4.8,0.4,7.9,1.3,9.4c0.9,1.5,2.4,2.5,4.7,3l0,0v2.7H1072L1072,80.1z M1028.9,54.8c0.9,5.5,3,9.8,6.2,12.9
		c3.2,3.1,7.2,4.7,12.1,4.7c3.9,0,7.2-1.1,10-3.3c2.8-2.2,5.1-5.5,7-10l0,0l2.9,0.5l-6.3,21.1l0,0c-0.8,0-1.5-0.1-2.2-0.1
		c-0.7,0-1.4,0-2,0c-1.1,0-3.2,0.2-6.3,0.5c-3.1,0.4-5.7,0.6-7.8,0.6c-10.5,0-19.1-2.8-25.8-8.3c-6.7-5.5-10-12.5-10-21
		c0-7.8,3-14.3,9-19.5c6-5.2,13.7-7.8,23.1-7.8c7.1,0,12.9,1.6,17.3,4.9c4.4,3.3,8,8.6,10.8,15.9l0,0L1028.9,54.8L1028.9,54.8z
		 M1045.9,43.9c-0.6-3.5-1.6-6.2-3.1-8c-1.5-1.8-3.3-2.7-5.6-2.7c-2.5,0-4.7,1.1-6.5,3.2c-1.8,2.1-2.6,4.8-2.6,8
		c0,0.4,0,1.2,0.1,2.6c0,0.5,0.1,0.9,0.1,1.3l0,0L1045.9,43.9L1045.9,43.9z M971.1,80.1v-2.7l0,0c2.1-0.3,3.5-1.2,4.3-2.6
		c0.8-1.4,1.2-3.9,1.2-7.5l0,0V46.9l0,0c0-3.6-0.4-6.1-1.1-7.6c-0.7-1.4-2-2.2-3.7-2.2c-2.8,0-4.9,1.6-6.5,4.7
		c-1.5,3.1-2.3,7.6-2.3,13.3l0,0V65l0,0c0,5,0.4,8.2,1.1,9.6c0.8,1.5,2.2,2.4,4.2,2.8l0,0v2.7H938v-2.7l0,0c2-0.3,3.5-1.2,4.3-2.6
		c0.8-1.4,1.3-3.9,1.3-7.5l0,0V46.9l0,0c0-3.5-0.4-6-1.1-7.5c-0.8-1.5-2.1-2.2-3.8-2.2c-2.8,0-4.9,1.6-6.5,4.7
		c-1.5,3.1-2.3,7.6-2.3,13.3l0,0V65l0,0c0,4.9,0.4,8,1.2,9.5c0.8,1.5,2.2,2.5,4.2,2.9l0,0v2.7h-30.1l0-2.7l0,0
		c1.9-0.2,3.1-0.9,3.9-1.9c0.7-1,1.1-3.3,1.1-6.9l0,0V39.8l0,0c0-3.4-0.4-5.7-1.2-6.9c-0.8-1.2-2.3-1.9-4.4-2.2l0,0l0-2.7l23-1.5
		l0,0c0.6,1.3,1.2,2.7,1.6,4.3c0.4,1.6,0.7,3.4,0.9,5.4c2.7-3.5,5.7-6.1,9-7.9c3.3-1.7,6.9-2.6,10.8-2.6c3.6,0,6.5,0.8,8.6,2.4
		c2.1,1.6,3.6,4.1,4.6,7.6c3.1-3.5,6.3-6,9.6-7.6c3.2-1.6,6.7-2.4,10.6-2.4c4.9,0,8.4,1.3,10.4,3.9c2,2.6,3,7.4,3,14.4l0,0v22.2l0,0
		c0,4.3,0.4,7.2,1.2,8.5c0.8,1.4,2.3,2.2,4.6,2.6l0,0v2.7H971.1L971.1,80.1z M830.4,80.1v-2.7l0,0c2-0.1,3.3-0.8,4.1-2
		c0.8-1.2,1.1-3.4,1.1-6.8l0,0V18.9l0,0c0-3.5-0.3-5.6-0.9-6.5c-0.6-0.9-1.7-1.5-3.4-1.7l0,0V7.9l24-3.4v31.8l0,0
		c3-3.6,6.3-6.2,9.7-7.9c3.4-1.7,7.2-2.5,11.5-2.5c5.2,0,8.9,1.3,11,3.9c2.1,2.6,3.1,7.4,3.1,14.4l0,0v22.2l0,0
		c0,4.2,0.4,7.1,1.3,8.5c0.8,1.4,2.4,2.3,4.7,2.6l0,0v2.7h-31.9v-2.7l0,0c2.3-0.3,3.9-1.2,4.8-2.6c0.9-1.4,1.4-3.9,1.4-7.4l0,0V46.9
		l0,0c0-3.6-0.4-6.1-1.2-7.6c-0.8-1.4-2.2-2.2-4.2-2.2c-3.2,0-5.7,1.5-7.4,4.6c-1.7,3.1-2.6,7.6-2.6,13.4l0,0V65l0,0
		c0,4.8,0.4,7.9,1.3,9.4c0.9,1.5,2.4,2.5,4.7,3l0,0v2.7H830.4L830.4,80.1z M787.2,54.8c0.9,5.5,3,9.8,6.1,12.9
		c3.2,3.1,7.2,4.7,12.1,4.7c3.9,0,7.3-1.1,10.1-3.3c2.8-2.2,5.1-5.5,7-10l0,0l2.9,0.5L819,80.7l0,0c-0.8,0-1.5-0.1-2.2-0.1
		c-0.7,0-1.3,0-2,0c-1.1,0-3.2,0.2-6.3,0.5c-3.1,0.4-5.7,0.6-7.8,0.6c-10.5,0-19.1-2.8-25.7-8.3c-6.7-5.5-10-12.5-10-21
		c0-7.8,3-14.3,9-19.5c6-5.2,13.7-7.8,23.1-7.8c7.1,0,12.9,1.6,17.3,4.9c4.4,3.3,8,8.6,10.8,15.9l0,0L787.2,54.8L787.2,54.8z
		 M804.3,43.9c-0.6-3.5-1.6-6.2-3.1-8c-1.5-1.8-3.3-2.7-5.6-2.7c-2.5,0-4.7,1.1-6.5,3.2c-1.8,2.1-2.6,4.8-2.6,8c0,0.4,0,1.2,0.1,2.6
		c0,0.5,0.1,0.9,0.1,1.3l0,0L804.3,43.9L804.3,43.9z M694.6,80.1v-2.7l0,0c1.9-0.1,3.3-0.8,4.1-2c0.7-1.2,1.1-3.4,1.1-6.8l0,0V39.8
		l0,0c0-3.4-0.4-5.7-1.2-6.9c-0.8-1.2-2.3-1.9-4.4-2.2l0,0l-0.1-2.7l23-1.5l0,0c0.6,1.3,1.2,2.7,1.6,4.3c0.4,1.6,0.7,3.4,0.9,5.4
		c3.2-3.6,6.4-6.3,9.8-7.9c3.4-1.7,7.1-2.5,11.3-2.5c5.2,0,8.9,1.3,11,3.9c2.1,2.6,3.1,7.4,3.1,14.4l0,0v22.2l0,0
		c0,4.2,0.4,7.1,1.3,8.5c0.8,1.4,2.4,2.3,4.7,2.6l0,0v2.7h-31.9v-2.7l0,0c2.3-0.3,3.9-1.2,4.8-2.6c0.9-1.4,1.4-3.9,1.4-7.4l0,0V46.9
		l0,0c0-3.6-0.4-6.1-1.2-7.6c-0.8-1.4-2.2-2.2-4.2-2.2c-3.2,0-5.7,1.5-7.4,4.6c-1.7,3.1-2.6,7.6-2.6,13.4l0,0V65l0,0
		c0,4.8,0.4,7.9,1.3,9.4c0.9,1.5,2.4,2.5,4.7,3l0,0v2.7H694.6L694.6,80.1z M643.4,39.8c0-3.4-0.4-5.7-1.2-6.9
		c-0.8-1.2-2.3-1.9-4.4-2.2l0,0l0-2.7l23-1.5l0,0c0.6,1.3,1.1,2.7,1.6,4.3c0.4,1.6,0.7,3.4,0.9,5.4c2.6-3.6,5.2-6.2,7.9-7.9
		c2.7-1.7,5.6-2.6,8.7-2.6c0.9,0,2.3,0.1,4.4,0.4l0,0l0.3,0.1L680.6,41l0,0c-1.8-0.9-3.3-1.6-4.6-2c-1.4-0.5-2.6-0.7-3.7-0.7
		c-3.4,0-5.7,1.2-7.1,3.6c-1.4,2.4-2.1,7.5-2.1,15.2l0,0V65l0,0c0,4.8,0.4,8,1.3,9.5c0.9,1.5,2.4,2.5,4.7,2.9l0,0v2.7h-30.9v-2.7
		l0,0c1.9-0.2,3.3-0.8,4-1.9c0.8-1.1,1.1-3.4,1.1-6.9l0,0V39.8L643.4,39.8z M595.1,54.8c0.9,5.5,3,9.8,6.1,12.9
		c3.2,3.1,7.2,4.7,12.1,4.7c3.9,0,7.2-1.1,10-3.3c2.8-2.2,5.2-5.5,7-10l0,0l2.9,0.5l-6.3,21.1l0,0c-0.8,0-1.5-0.1-2.2-0.1
		c-0.7,0-1.4,0-2,0c-1.1,0-3.2,0.2-6.3,0.5c-3.1,0.4-5.7,0.6-7.8,0.6c-10.5,0-19.1-2.8-25.7-8.3c-6.7-5.5-10-12.5-10-21
		c0-7.8,3-14.3,9-19.5c6-5.2,13.7-7.8,23.1-7.8c7.1,0,12.9,1.6,17.3,4.9c4.4,3.3,8,8.6,10.8,15.9l0,0L595.1,54.8L595.1,54.8z
		 M612.1,43.9c-0.6-3.5-1.6-6.2-3.1-8c-1.5-1.8-3.3-2.7-5.6-2.7c-2.5,0-4.7,1.1-6.5,3.2c-1.8,2.1-2.6,4.8-2.6,8c0,0.4,0,1.2,0.1,2.6
		c0,0.5,0.1,0.9,0.1,1.3l0,0L612.1,43.9L612.1,43.9z M525.6,34.7h-6.2v-3.2l0,0c2.2-0.1,4.2-1.4,5.9-3.9c1.7-2.5,2.6-5.4,2.6-8.8
		c0-0.5,0-1.1-0.1-1.9c-0.1-0.8-0.3-1.8-0.4-3.2l0,0l18.1-6.5v20.7h8.8l0,0c1.5,0,2.6-0.1,3.5-0.4c0.9-0.2,1.9-0.6,2.8-1.1l0,0
		l-2.8,9.2l0,0c-0.6-0.3-1.4-0.5-2.1-0.7c-0.8-0.1-1.9-0.2-3.3-0.2l0,0h-6.7v28.1l0,0c0,3.6,0.4,6.1,1.3,7.5
		c0.9,1.4,2.4,2.1,4.5,2.1c2,0,3.8-0.8,5.5-2.4c1.7-1.6,3.2-3.9,4.6-6.9l0,0l2.6,0.8l-6.2,15.3l0,0c-3.3,0.9-6.2,1.5-8.7,1.9
		c-2.5,0.4-4.8,0.6-6.9,0.6c-5.8,0-10-1.4-12.7-4.1c-2.7-2.8-4-7.1-4-13l0,0V34.7L525.6,34.7z M450.1,80.1v-2.7l0,0
		c1.9-0.1,3.3-0.8,4.1-2c0.7-1.2,1.1-3.4,1.1-6.8l0,0V39.8l0,0c0-3.4-0.4-5.7-1.2-6.9c-0.8-1.2-2.3-1.9-4.4-2.2l0,0l-0.1-2.7l23-1.5
		l0,0c0.6,1.3,1.1,2.7,1.6,4.3c0.4,1.6,0.7,3.4,0.9,5.4c3.2-3.6,6.4-6.3,9.8-7.9c3.4-1.7,7.1-2.5,11.3-2.5c5.2,0,8.9,1.3,11,3.9
		c2.1,2.6,3.1,7.4,3.1,14.4l0,0v22.2l0,0c0,4.2,0.4,7.1,1.2,8.5c0.8,1.4,2.4,2.3,4.7,2.6l0,0v2.7h-31.9v-2.7l0,0
		c2.3-0.3,3.9-1.2,4.8-2.6c0.9-1.4,1.4-3.9,1.4-7.4l0,0V46.9l0,0c0-3.6-0.4-6.1-1.2-7.6c-0.8-1.4-2.2-2.2-4.2-2.2
		c-3.2,0-5.7,1.5-7.4,4.6c-1.7,3.1-2.6,7.6-2.6,13.4l0,0V65l0,0c0,4.8,0.4,7.9,1.3,9.4c0.8,1.5,2.4,2.5,4.7,3l0,0v2.7H450.1
		L450.1,80.1z M380,63.3V39.8l0,0c0-3.5-0.4-5.8-1.3-7c-0.8-1.2-2.3-1.9-4.4-2.2l0,0v-2.7l25.5-1.5v34.7l0,0c0,3.3,0.4,5.7,1.3,7.1
		c0.9,1.5,2.3,2.2,4.2,2.2c3.2,0,5.7-1.5,7.4-4.5c1.7-3,2.5-7.4,2.5-13.2l0,0v-13l0,0c0-3.4-0.4-5.7-1.3-6.9
		c-0.8-1.2-2.3-1.9-4.5-2.2l0,0v-2.7l25.5-1.5v41.6l0,0c0,3.4,0.4,5.7,1.3,6.9c0.8,1.1,2.3,1.8,4.4,2.1l0,0v3h-23.6l0,0
		c-0.6-1.2-1-2.5-1.4-3.9c-0.3-1.4-0.5-2.9-0.6-4.6c-3.2,3.4-6.5,5.9-9.9,7.5c-3.4,1.6-7.1,2.4-11.2,2.4c-5.2,0-8.8-1.3-10.9-3.9
		C381.1,75,380,70.2,380,63.3L380,63.3z M319.7,80.6L318,59.3h2.9l0,0c1.1,4.7,3.3,8.3,6.5,10.8c3.2,2.5,7.2,3.8,12,3.8
		c3.4,0,6.1-0.6,8.2-1.9c2-1.2,3.1-2.9,3.1-5c0-3.1-3.6-5.5-10.8-7.2c-1.9-0.5-3.4-0.8-4.5-1.2c-5.6-1.4-9.7-3.4-12.3-5.9
		c-2.6-2.6-3.9-5.9-3.9-9.9c0-5.3,2.3-9.6,6.9-12.9c4.6-3.3,10.6-5,18.2-5c2.3,0,5.1,0.3,8.3,0.8c3.2,0.6,5.3,0.9,6.1,0.9
		c0.6,0,1.4-0.1,2.2-0.3c0.8-0.2,1.9-0.6,3.1-1.1l0,0l1.4,16.4h-2.8l0,0c-1.7-3.2-3.8-5.6-6.6-7.4c-2.8-1.7-5.8-2.6-9.3-2.6
		c-2.3,0-4.1,0.5-5.6,1.5c-1.5,0.9-2.2,2.1-2.2,3.4c0,2.2,2.4,4,7.2,5.4c0.6,0.2,1.1,0.3,1.5,0.4l0,0l8.9,2.6l0,0
		c4.7,1.4,8.2,3.3,10.4,5.9c2.2,2.5,3.3,5.8,3.3,9.9c0,6.6-2.6,11.7-7.6,15.4c-5.1,3.6-12.4,5.4-21.8,5.4c-3.2,0-6.6-0.4-10.2-1.1
		c-3.6-0.7-5.5-1.1-5.9-1.1c-0.4,0-1.1,0.1-1.9,0.3C321.9,79.9,320.9,80.2,319.7,80.6L319.7,80.6z M249.3,63.3V39.8l0,0
		c0-3.5-0.4-5.8-1.3-7c-0.8-1.2-2.3-1.9-4.4-2.2l0,0v-2.7l25.4-1.5v34.7l0,0c0,3.3,0.4,5.7,1.3,7.1c0.9,1.5,2.3,2.2,4.2,2.2
		c3.2,0,5.7-1.5,7.4-4.5c1.7-3,2.5-7.4,2.5-13.2l0,0v-13l0,0c0-3.4-0.4-5.7-1.2-6.9c-0.8-1.2-2.4-1.9-4.5-2.2l0,0v-2.7l25.6-1.5
		v41.6l0,0c0,3.4,0.4,5.7,1.2,6.9c0.8,1.1,2.3,1.8,4.5,2.1l0,0v3h-23.6l0,0c-0.6-1.2-1-2.5-1.4-3.9c-0.3-1.4-0.5-2.9-0.6-4.6
		c-3.2,3.4-6.5,5.9-9.9,7.5c-3.4,1.6-7.1,2.4-11.2,2.4c-5.2,0-8.8-1.3-10.9-3.9C250.4,75,249.3,70.2,249.3,63.3L249.3,63.3z
		 M169.1,80.1v-3l0,0c2-0.3,3.3-1.1,4.1-2.4c0.7-1.3,1.1-4.1,1.1-8.6l0,0V22.7l0,0c0-4.5-0.4-7.4-1.1-8.7c-0.7-1.2-2.1-2-4.1-2.4
		l0,0v-3h48.1l0,0c6.3,0,10.7,0.9,13.3,2.6c2.6,1.7,3.9,4.6,3.9,8.6c0,3-1.1,5.8-3.3,8.1c-2.2,2.4-6.5,5.2-12.7,8.3
		c6.7,1.6,12,4.5,15.9,8.8c3.9,4.3,5.9,9.3,5.9,15c0,6.7-2.4,11.7-7.2,15.1c-4.8,3.3-12.1,5-21.8,5l0,0H169.1L169.1,80.1z
		 M196.3,36.1c6-2.1,10.3-4.3,13.1-6.5c2.7-2.2,4.1-4.6,4.1-7.3c0-2-0.8-3.5-2.3-4.5c-1.5-1-3.8-1.5-6.9-1.5c-3.3,0-5.5,0.3-6.5,0.8
		c-1,0.6-1.5,1.8-1.5,3.8l0,0V36.1L196.3,36.1z M196.3,68.7c0,2,0.4,3.2,1.3,3.7c0.9,0.4,2.6,0.6,5.1,0.6c4.8,0,8.6-1.3,11.3-4
		c2.7-2.6,4.1-6.2,4.1-10.8c0-3.5-0.9-6.8-2.7-9.7c-1.8-2.9-4.5-5.5-8.1-7.6c-1.2,0.6-2.5,1.1-4,1.7c-1.5,0.5-3.8,1.2-7,2l0,0V68.7z
		"/>
</g>
</svg>
